<svg width="407" height="414" viewBox="0 0 407 414" fill="none" xmlns="http://www.w3.org/2000/svg">
<path fill-rule="evenodd" clip-rule="evenodd" d="M217.431 6.13631C243.882 -2.33315 273.189 -1.56564 300.032 5.56187C327.54 12.8659 361.555 21.7444 373.542 47.5878C387.444 77.5594 357.95 113.209 364.944 145.505C369.922 168.491 409.567 178.109 406.868 201.474C403.846 227.649 355.24 231.242 352.023 257.393C347.986 290.211 418.177 333.559 388.77 348.603C349.798 368.54 308.439 284.248 267.79 300.485C235.339 313.448 273.462 375.833 251.83 403.304C237.205 421.878 205.44 410.889 181.851 409.625C156.699 408.277 125.376 414.101 108.248 395.609C89.137 374.975 109.468 335.945 92.6939 313.366C76.0906 291.017 34.7899 298.538 19.0642 275.562C4.76049 254.663 16.6814 225.595 15.3067 200.297C13.7631 171.891 -14.9093 128.782 10.3838 115.823C50.0679 95.4907 100.727 153.704 141.493 135.645C167.23 124.244 138.791 76.9285 153.04 52.6275C166.552 29.5825 192.01 14.2759 217.431 6.13631Z" fill="url(#paint0_linear)"/>
<defs>
<linearGradient id="paint0_linear" x1="66.8487" y1="414" x2="389.734" y2="0.356182" gradientUnits="userSpaceOnUse">
<stop stop-color="#FE662D"/>
<stop offset="1" stop-color="#FFCB5A"/>
</linearGradient>
</defs>
</svg>
