<svg width="48" height="59" viewBox="0 0 48 59" fill="none" xmlns="http://www.w3.org/2000/svg">
<path d="M0 2.51463C0 1.46164 0.861539 0.600098 1.91453 0.600098H46.0855C47.1521 0.600098 48 1.46164 48 2.51463V56.2856C48 57.3522 47.1385 58.2001 46.0855 58.2001H1.91453C0.847863 58.2001 0 57.3386 0 56.2856V2.51463Z" fill="#FFBF45"/>
<path d="M4.32422 5.16771C4.32422 4.63438 4.74815 4.21045 5.28148 4.21045H42.7379C43.2712 4.21045 43.6952 4.63438 43.6952 5.16771V53.66C43.6952 54.1934 43.2712 54.6173 42.7379 54.6173H5.28148C4.74815 54.6173 4.32422 54.1934 4.32422 53.66V5.16771Z" fill="#FA6E0A"/>
<path d="M6.48438 6.12463C6.48438 5.8648 6.70318 5.646 6.96301 5.646H41.0553C41.3151 5.646 41.534 5.8648 41.534 6.12463V52.7024C41.534 52.9622 41.3151 53.181 41.0553 53.181H6.96301C6.70318 53.181 6.48438 52.9622 6.48438 52.7024V6.12463Z" fill="#F03D14"/>
<path d="M7.68555 6.60358C7.68555 6.46682 7.79495 6.35742 7.9317 6.35742H40.0958C40.2326 6.35742 40.342 6.46682 40.342 6.60358V52.2104C40.342 52.3472 40.2326 52.4566 40.0958 52.4566H7.91803C7.78128 52.4566 7.67188 52.3472 7.67188 52.2104V6.60358H7.68555Z" fill="#001F78"/>
<path d="M37.6922 7.80713H10.3281V35.1712H37.6922V7.80713Z" fill="#00B5DB"/>
<path d="M36.5022 8.51807H11.5312V34.4463H36.5022V8.51807Z" fill="#001F78"/>
<path d="M37.4714 38.7676H34.4903V47.4377H37.4714V38.7676ZM30.415 43.1026C30.415 44.771 30.374 45.5642 29.4167 45.5642H29.1706V40.6684H29.4167C30.374 40.6548 30.415 41.4616 30.415 43.1026ZM33.4099 43.1026C33.4099 38.8907 31.9877 38.7813 28.9655 38.7813H26.1894V47.4513H28.9655C32.0014 47.4377 33.4099 47.3146 33.4099 43.1026ZM25.3005 47.4377L25.0133 45.0855H22.8663V38.7676H19.8851V47.4377H25.3005ZM19.174 47.4377L16.6714 38.7676H12.9655L10.4219 47.4377H13.4031L13.6356 46.4394H15.7279L15.974 47.4377H19.174ZM15.3723 44.6069H13.9911L14.6749 41.0924L15.3723 44.6069Z" fill="white"/>
<path d="M20.5375 33.735H18.9922L25.8708 9.24268H27.4298L20.5375 33.735Z" fill="#00B5DB"/>
<path d="M17.9574 33.735H16.3984L23.2771 9.24268H24.836L17.9574 33.735Z" fill="#00B5DB"/>
<path d="M15.3558 33.735H13.7969L20.6892 9.24268H22.2482L15.3558 33.735Z" fill="#00B5DB"/>
<path d="M23.7969 25.8036L24.2071 24.3677H35.0516V25.8036H23.7969Z" fill="#00B5DB"/>
<path d="M24.4805 23.4105L24.877 21.9609H35.0514V23.4105H24.4805Z" fill="#00B5DB"/>
<path d="M23.125 28.2103L23.5216 26.7607H35.0498V28.2103H23.125Z" fill="#00B5DB"/>
</svg>
