<svg width="95" height="56" viewBox="0 0 95 56" fill="none" xmlns="http://www.w3.org/2000/svg">
<path d="M36.2972 0.140687C24.8312 13.0839 13.3652 27.0823 2.25088 40.3069C1.61779 41.0807 1.26607 42.0655 0.773665 42.9096C-0.984926 47.3413 0.351604 52.617 3.79844 55.5715C10.1997 55.7122 16.39 55.8529 23.0726 55.5715C23.0023 55.0087 22.5099 54.657 22.2285 54.1646C19.9071 50.7178 19.9071 45.653 22.0878 42.2062C33.3428 28.2781 44.9495 14.7018 56.7672 0.77378C56.9079 0.633093 57.1189 0.281375 56.7672 0.140687C53.8128 0.211031 50.8583 0.140687 47.9039 0.0703436C45.6529 0.0703436 43.4723 0 41.3619 0C39.6737 0 37.9855 0 36.2972 0.140687Z" fill="#00539F"/>
<path d="M48.7461 12.451L48.6758 13.1545L63.7997 31.5845C66.7541 35.3831 70.1306 38.8299 72.7333 42.8395C74.6326 46.8491 73.9292 52.1952 71.1154 55.642L71.1857 55.9234H89.9675C91.1633 55.7124 91.7964 54.4462 92.6406 53.5317C94.6805 49.8738 94.8212 44.8091 92.5702 41.2919C81.5966 27.7859 70.412 14.0689 59.2977 0.703644L58.8053 0.633301L48.7461 12.451Z" fill="#00A0E0"/>
<path d="M41.7128 26.3783C38.8287 33.1313 44.5265 38.1257 47.1293 43.6125C48.7472 40.0954 52.1237 37.0706 53.1085 33.1313C55.1484 27.1521 50.2947 22.3688 47.3403 17.7261C45.3707 20.5398 43.1197 23.3536 41.7128 26.3783Z" fill="#00539F"/>
<path d="M30.0364 36.5786C29.2627 36.5786 28.4889 36.5786 27.7151 36.5786L27.5041 36.7193C27.2227 39.0406 27.4337 41.5027 28.4889 43.613C30.8806 48.326 35.8046 50.4363 41.01 49.8736C43.8238 50.2956 46.2858 52.3356 46.9189 55.079C47.763 53.6018 48.7478 51.4211 50.6471 50.6473C54.2346 49.0998 59.018 50.577 62.0428 47.9743C65.8413 45.5826 67.7406 41.0103 66.7558 36.7193C65.771 36.7193 64.7158 36.7193 63.731 36.649C60.0732 36.5786 56.2746 36.4379 53.4609 38.4779C50.2954 40.3068 48.2554 43.4019 47.1299 46.7081C46.0748 43.824 44.3162 40.7992 41.7135 39.0406C39.0404 36.9303 35.5936 36.649 32.0764 36.649C31.4433 36.5786 30.7399 36.5786 30.0364 36.5786Z" fill="#00539F"/>
</svg>
