<svg width="615" height="880" viewBox="0 0 615 880" fill="none" xmlns="http://www.w3.org/2000/svg">
<g id="machine4" filter="url(#filter0_d_420_1951)">
<g id="machine">
<path id="Vector" d="M421.863 225.575V797.288H448.483C532.147 797.288 599.979 768.141 599.979 732.185V290.677C599.979 254.681 532.147 225.575 448.483 225.575H421.863Z" fill="#F96302"/>
<g id="Group">
<path id="Vector_2" d="M479.689 253.974H536.821V308.31H479.689V253.974Z" fill="white"/>
<path id="Vector_3" d="M479.688 253.974H515.534C518.42 253.974 521.306 253.968 524.185 253.979C523.388 254.749 522.571 255.514 521.768 256.285C522.085 256.604 522.421 256.901 522.739 257.214C523.472 256.735 524.299 256.353 525.199 256.29C526.009 256.21 526.825 256.41 527.569 256.718C527.851 256.832 528.115 257.015 528.433 257.043C528.745 257.026 528.979 256.764 529.087 256.501C529.177 256.319 529.093 256.102 528.943 255.971C528.247 255.303 527.545 254.647 526.855 253.979C530.179 253.962 533.502 253.979 536.82 253.974C536.82 257.055 536.826 260.142 536.82 263.228C536.136 262.59 535.47 261.939 534.792 261.3C534.612 261.123 534.318 261.032 534.072 261.14C533.91 261.214 533.754 261.334 533.682 261.5C533.592 261.831 533.748 262.156 533.886 262.452C534.306 263.297 534.492 264.25 534.366 265.18C534.282 265.813 534.042 266.435 533.682 266.977C533.586 267.108 533.497 267.245 533.412 267.382C533.76 267.667 534.054 268.01 534.408 268.289C535.2 267.513 536.016 266.755 536.82 265.984C536.82 271.136 536.826 276.289 536.82 281.441C536.664 281.493 536.49 281.595 536.328 281.521C536.112 281.39 535.95 281.196 535.77 281.03C533.826 279.193 531.9 277.339 529.951 275.507C529.177 276.243 528.415 276.985 527.629 277.704C528.043 278.149 528.505 278.543 528.937 278.97C530.497 280.454 532.056 281.938 533.622 283.421C533.754 283.552 533.91 283.667 533.982 283.838C534.006 284.026 533.868 284.186 533.814 284.357C533.736 284.557 533.904 284.796 534.126 284.802C534.324 284.836 534.492 284.711 534.618 284.585C535.35 283.883 536.088 283.187 536.82 282.491V308.31H509.667C510.363 307.648 511.059 306.992 511.755 306.33C509.386 304.083 507.02 301.833 504.657 299.58C503.884 300.287 503.14 301.024 502.372 301.737C502.21 301.897 502.03 302.05 501.952 302.267C501.916 302.478 502.12 302.678 502.336 302.69C502.528 302.667 502.69 302.547 502.882 302.507C503.05 302.496 503.182 302.621 503.302 302.724C504.706 304.07 506.116 305.406 507.525 306.747C507.879 307.1 508.263 307.42 508.593 307.785C508.743 307.945 508.641 308.15 508.557 308.31H492.317L496.15 304.664C496.39 304.447 496.636 304.196 496.672 303.865C496.726 303.483 496.319 303.1 495.916 303.18C495.58 303.243 495.305 303.494 494.957 303.494C494.735 303.477 494.567 303.323 494.417 303.186C491.363 300.287 488.315 297.383 485.268 294.485C485.064 294.291 484.818 294.103 484.746 293.823C484.734 293.492 484.98 293.224 485.07 292.921C485.184 292.539 484.806 292.122 484.398 292.151C484.116 292.168 483.864 292.322 483.672 292.511C482.352 293.783 481.008 295.038 479.688 296.311C479.682 282.2 479.688 268.084 479.688 253.974Z" fill="#F96302"/>
<path id="Vector_4" d="M520.897 257.106C520.951 257.049 521.047 256.998 521.101 257.083C525.283 261.055 529.463 265.03 533.64 269.008C532.172 270.403 530.706 271.799 529.242 273.196C529.05 273.367 528.816 273.51 528.552 273.527C528.186 273.556 527.82 273.242 527.85 272.888C527.862 272.54 528.174 272.272 528.18 271.918C528.192 271.696 528.012 271.53 527.862 271.376C524.76 268.432 521.665 265.482 518.563 262.532C518.389 262.372 518.197 262.173 517.933 262.19C517.543 262.195 517.249 262.538 516.853 262.498C516.625 262.503 516.439 262.332 516.325 262.156C516.169 261.848 516.313 261.477 516.548 261.249C517.999 259.868 519.451 258.487 520.897 257.106M526.92 258.264C527.04 258.053 527.268 257.859 527.538 257.893C527.838 257.916 528.054 258.15 528.252 258.338C529.45 259.483 530.65 260.626 531.852 261.768C532.08 261.979 532.35 262.184 532.404 262.498C532.434 262.823 532.122 263.114 531.792 263.148C531.516 263.154 531.264 263.012 531.024 262.886C530.514 262.601 529.938 262.372 529.332 262.401C529.02 262.395 528.72 262.515 528.438 262.635C528.108 262.298 527.73 261.996 527.418 261.648C527.514 261.391 527.64 261.146 527.658 260.872C527.7 260.25 527.436 259.657 527.106 259.137C526.938 258.881 526.806 258.561 526.92 258.264M500.481 261.288C501.129 260.638 501.813 260.027 502.461 259.383C503.079 259.953 503.679 260.529 504.285 261.106C504.483 261.288 504.303 261.596 504.081 261.671C503.895 261.693 503.733 261.574 503.565 261.516C502.917 261.214 502.113 261.18 501.465 261.511C501.297 261.579 501.159 261.716 500.979 261.745C500.799 261.608 500.649 261.437 500.481 261.288M500.073 261.653C500.955 262.464 501.807 263.303 502.677 264.118C504.039 265.408 505.394 266.709 506.762 267.998C505.983 268.748 505.199 269.494 504.411 270.235C504.249 270.406 503.925 270.48 503.769 270.269C503.577 270.075 503.787 269.836 503.847 269.636C503.919 269.487 503.793 269.356 503.691 269.254C502.12 267.765 500.552 266.274 498.987 264.78C498.843 264.655 498.723 264.501 498.549 264.415C498.309 264.364 498.123 264.569 497.889 264.581C497.709 264.563 497.541 264.393 497.565 264.215C497.577 264.078 497.661 263.959 497.763 263.862C498.531 263.126 499.311 262.401 500.073 261.653M503.205 262.566C503.127 262.378 503.265 262.15 503.475 262.122C503.631 262.099 503.757 262.213 503.865 262.31C504.513 262.926 505.16 263.548 505.814 264.158C505.928 264.278 506.09 264.387 506.103 264.563C506.126 264.74 505.947 264.912 505.755 264.894C505.502 264.894 505.311 264.706 505.083 264.626C504.747 264.478 504.339 264.466 504.009 264.638C503.835 264.472 503.661 264.301 503.481 264.147C503.559 263.896 503.631 263.628 503.565 263.365C503.517 263.069 503.301 262.84 503.205 262.566M514.694 263.012C514.856 262.857 515.059 262.743 515.288 262.715C515.689 262.658 516.109 263.029 516.032 263.417C515.977 263.759 515.678 264.033 515.701 264.393C515.761 264.643 515.977 264.814 516.151 264.992C519.217 267.901 522.283 270.806 525.336 273.721C525.504 273.864 525.672 274.052 525.912 274.052C526.272 274.052 526.548 273.796 526.89 273.738C527.286 273.676 527.676 274.046 527.628 274.423C527.604 274.68 527.442 274.902 527.256 275.079C525.714 276.54 524.178 278.012 522.637 279.473C522.439 279.661 522.187 279.832 521.893 279.832C521.569 279.849 521.257 279.587 521.215 279.284C521.173 278.885 521.563 278.588 521.551 278.189C521.533 278 521.395 277.847 521.263 277.709C518.569 275.154 515.881 272.592 513.188 270.035C515.414 273.967 517.657 277.887 519.883 281.818C519.919 281.875 519.949 281.938 519.979 282.006C519.817 282.148 519.661 282.303 519.505 282.457C515.048 280.369 510.596 278.257 506.144 276.163C505.443 275.832 504.747 275.444 503.955 275.353C503.691 275.319 503.511 275.524 503.319 275.656C503.121 275.804 502.857 275.895 502.611 275.821C502.317 275.696 502.113 275.365 502.203 275.062C502.263 274.857 502.413 274.686 502.569 274.537C504.009 273.173 505.443 271.804 506.883 270.446C509.126 271.49 511.376 272.512 513.626 273.556C513.698 273.607 513.775 273.658 513.842 273.727C513.878 273.687 513.908 273.647 513.944 273.607L513.86 273.618C512.678 271.479 511.436 269.368 510.254 267.228C511.742 265.824 513.212 264.415 514.694 263.012M506.816 263.976C506.924 263.787 507.23 263.765 507.374 263.924C507.98 264.506 508.598 265.088 509.21 265.67C508.527 266.327 507.839 266.979 507.147 267.627C506.991 267.456 506.78 267.319 506.66 267.12C506.858 266.8 507.068 266.475 507.122 266.098C507.224 265.579 507.134 265.031 506.9 264.552C506.834 264.369 506.69 264.158 506.816 263.976M496.744 264.832C496.863 264.712 496.995 264.586 497.169 264.546C497.344 264.512 497.559 264.615 497.583 264.797C497.626 264.997 497.47 265.163 497.428 265.356C497.403 265.511 497.535 265.619 497.631 265.722C499.233 267.245 500.829 268.769 502.431 270.286C502.539 270.383 502.653 270.503 502.809 270.537C503.001 270.52 503.163 270.4 503.349 270.361C503.577 270.338 503.787 270.572 503.715 270.777C503.685 270.931 503.559 271.045 503.451 271.154C502.671 271.896 501.891 272.637 501.111 273.373C500.973 273.505 500.793 273.641 500.589 273.596C500.475 273.55 500.379 273.464 500.337 273.356C500.277 273.105 500.559 272.9 500.493 272.648C500.433 272.552 500.349 272.477 500.271 272.398C499.539 271.707 498.813 271.005 498.075 270.315C497.818 270.565 497.558 270.812 497.295 271.057C497.115 270.891 496.935 270.726 496.768 270.549C497.031 270.303 497.29 270.053 497.554 269.807C496.905 269.202 496.263 268.586 495.622 267.975C495.484 267.85 495.364 267.713 495.202 267.622C494.908 267.53 494.626 267.924 494.344 267.707C494.116 267.554 494.188 267.245 494.374 267.085C495.16 266.326 495.957 265.585 496.744 264.832" fill="white"/>
<path id="Vector_5" d="M493.673 267.793C493.853 267.684 494.123 267.753 494.207 267.947C494.291 268.181 494.069 268.381 494.063 268.609C494.057 268.729 494.159 268.814 494.237 268.894C495.899 270.475 497.555 272.055 499.216 273.63C499.516 273.938 499.9 273.407 500.224 273.636C500.434 273.796 500.362 274.109 500.182 274.258C499.402 275.005 498.616 275.741 497.842 276.488C497.716 276.603 497.591 276.74 497.417 276.791C497.224 276.842 496.99 276.728 496.967 276.534C496.931 276.306 497.147 276.129 497.135 275.907C497.104 275.81 497.039 275.73 496.967 275.656C495.394 274.166 493.824 272.672 492.257 271.177C492.107 271.045 491.981 270.88 491.783 270.811C491.567 270.8 491.387 270.954 491.177 270.977C490.997 270.983 490.841 270.828 490.835 270.663C490.817 270.486 490.949 270.344 491.075 270.224C491.855 269.482 492.635 268.74 493.409 267.998C493.493 267.924 493.571 267.85 493.673 267.793M489.335 271.873C489.695 271.542 490.043 271.199 490.403 270.863C491.033 271.445 491.651 272.049 492.281 272.637C492.389 272.751 492.521 272.854 492.581 273.002C492.653 273.282 492.317 273.59 492.023 273.465C491.729 273.339 491.495 273.116 491.213 272.968C490.739 272.689 490.187 272.512 489.623 272.575C489.461 272.415 489.281 272.266 489.138 272.095C489.185 272.004 489.263 271.941 489.335 271.873M486.72 274.36C487.392 273.733 488.052 273.099 488.717 272.466C489.978 273.671 491.242 274.873 492.509 276.072C493.205 276.728 493.883 277.396 494.585 278.041C494.783 278.252 495.047 278.075 495.263 278.001C495.479 277.909 495.731 278.092 495.725 278.309C495.725 278.457 495.635 278.583 495.533 278.686C494.717 279.456 493.913 280.226 493.103 280.996C492.989 281.105 492.845 281.213 492.677 281.202C492.491 281.219 492.311 281.048 492.329 280.876C492.341 280.694 492.491 280.545 492.491 280.363C492.503 280.209 492.365 280.112 492.269 280.009C490.355 278.2 488.459 276.375 486.54 274.571C486.6 274.497 486.654 274.429 486.72 274.36M531.745 273.801C532.489 274.497 533.227 275.199 533.959 275.907C534.192 276.118 534.025 276.54 533.713 276.586C533.424 276.626 533.203 276.409 532.981 276.266C532.387 275.878 531.685 275.513 530.941 275.633C530.743 275.462 530.551 275.285 530.389 275.085C530.851 274.663 531.295 274.229 531.745 273.801M486.108 274.959C486.33 275.039 486.468 275.279 486.648 275.427C486.552 276.089 486.881 276.711 487.271 277.23C487.386 277.396 487.523 277.55 487.595 277.738C487.674 277.989 487.416 278.252 487.152 278.223C487.002 278.223 486.9 278.103 486.804 278.018C486.15 277.39 485.49 276.774 484.836 276.146C485.268 275.758 485.67 275.342 486.108 274.959M499.456 278.178C500.65 277.812 501.946 277.772 503.176 278.012C505.264 278.434 507.111 279.598 508.587 281.042C510.033 282.434 511.185 284.18 511.575 286.126C511.791 287.193 511.743 288.311 511.419 289.355C511.101 290.388 510.525 291.341 509.799 292.162C509.487 291.849 509.145 291.558 508.845 291.238C508.845 291.084 508.947 290.953 508.977 290.804C509.139 290.302 508.977 289.738 508.575 289.372C505.612 286.548 502.636 283.724 499.672 280.899C499.402 280.637 499.06 280.426 498.67 280.397C498.352 280.357 498.04 280.466 497.74 280.568C497.62 280.631 497.543 280.489 497.465 280.431C497.224 280.186 496.96 279.964 496.721 279.712C496.721 279.695 496.715 279.661 496.715 279.644C497.513 278.994 498.449 278.486 499.456 278.178M507.543 277.864C507.819 277.949 508.071 278.081 508.329 278.206C509.295 278.651 510.255 279.113 511.227 279.564C511.311 279.604 511.389 279.667 511.461 279.729C512.277 280.517 513.099 281.293 513.921 282.075C514.368 282.525 514.918 282.873 515.528 283.09C515.954 283.244 516.434 283.244 516.86 283.101C517.076 283.033 517.31 282.953 517.538 283.022C517.652 283.066 517.751 283.14 517.824 283.235C517.897 283.329 517.941 283.441 517.952 283.558C517.934 283.872 517.724 284.134 517.502 284.351C516.768 285.059 516.028 285.761 515.283 286.457C515.085 286.628 514.857 286.805 514.581 286.833C514.185 286.89 513.795 286.491 513.915 286.126C514.029 285.755 514.185 285.378 514.119 284.99C514.023 284.34 513.633 283.763 513.201 283.267C511.575 281.715 509.943 280.169 508.311 278.611C508.059 278.36 507.783 278.132 507.543 277.864M525.841 279.416C526.292 278.988 526.747 278.56 527.197 278.126C527.395 278.28 527.569 278.463 527.755 278.634C527.677 279.205 527.881 279.769 528.193 280.249C528.355 280.523 528.589 280.757 528.733 281.042C528.811 281.179 528.757 281.333 528.703 281.47C529.46 281.956 530.12 282.567 530.653 283.273C531.259 284.089 531.685 285.059 531.661 286.074C531.667 287.039 531.229 287.963 530.587 288.693C530.413 288.522 530.209 288.368 530.059 288.174C530.089 287.963 530.197 287.757 530.143 287.546C530.083 287.273 529.861 287.079 529.663 286.89C528.079 285.39 526.501 283.889 524.924 282.388C524.768 282.24 524.581 282.103 524.359 282.086C524.15 282.063 523.94 282.12 523.748 282.183C523.562 282.018 523.376 281.841 523.196 281.669C523.994 281.019 525.031 280.602 526.093 280.654C526.501 280.642 526.897 280.734 527.293 280.819C526.813 280.346 526.303 279.901 525.841 279.416M494.447 282.765C494.777 281.892 495.299 281.093 495.917 280.38C496.223 280.677 496.547 280.962 496.847 281.264C496.906 281.447 496.751 281.618 496.721 281.801C496.565 282.291 496.769 282.828 497.147 283.181C500.062 285.96 502.984 288.733 505.906 291.512C506.188 291.803 506.529 292.077 506.961 292.14C507.345 292.197 507.723 292.071 508.077 291.946C508.401 292.254 508.725 292.556 509.049 292.864C508.341 293.452 507.519 293.914 506.644 294.239C505.324 294.724 503.848 294.804 502.462 294.513C500.356 294.074 498.502 292.87 497.02 291.403C495.653 290.04 494.549 288.368 494.159 286.502C493.895 285.264 493.979 283.952 494.447 282.765M521.714 284.414C521.786 283.547 522.188 282.719 522.788 282.069C522.962 282.24 523.148 282.411 523.328 282.582C523.262 282.788 523.159 283.005 523.22 283.221C523.256 283.416 523.393 283.57 523.538 283.706C525.121 285.207 526.693 286.713 528.277 288.214C528.463 288.385 528.643 288.591 528.907 288.659C529.147 288.722 529.393 288.642 529.627 288.573C529.807 288.745 529.993 288.916 530.167 289.098C529.411 289.692 528.469 290.108 527.473 290.108C526.507 290.148 525.559 289.823 524.756 289.344C524.174 288.99 523.64 288.562 523.196 288.066C523.406 288.733 523.358 289.481 523.028 290.108C522.704 290.725 522.2 291.227 521.702 291.712C521.522 291.541 521.336 291.363 521.15 291.192C521.306 290.953 521.408 290.667 521.312 290.388C521.198 290.102 520.952 289.897 520.736 289.68C520.29 289.251 519.842 288.823 519.392 288.397C519.128 288.163 518.846 287.894 518.468 287.872C518.246 287.849 518.048 287.957 517.862 288.06C517.676 287.889 517.496 287.712 517.31 287.541C518.03 286.85 518.852 286.137 519.908 286.012C520.772 285.874 521.642 286.228 522.254 286.793C521.87 286.063 521.63 285.241 521.714 284.414M490.091 286.405C490.271 286.24 490.505 286.114 490.757 286.097C491.171 286.074 491.549 286.485 491.435 286.867C491.345 287.158 491.123 287.415 491.111 287.729C491.135 288.003 491.375 288.197 491.567 288.38L500.806 297.166C500.95 297.298 501.112 297.429 501.316 297.446C501.664 297.446 501.934 297.201 502.264 297.126C502.66 297.052 503.056 297.395 503.038 297.771C503.026 298.028 502.876 298.262 502.69 298.444L498.04 302.866C497.836 303.055 497.584 303.22 497.291 303.22C496.931 303.232 496.595 302.907 496.624 302.558C496.661 302.216 496.96 301.942 496.967 301.588C496.955 301.377 496.78 301.217 496.643 301.069C495.263 299.751 493.877 298.444 492.503 297.132C492.449 297.092 492.377 296.978 492.299 297.058C491.819 297.497 491.357 297.96 490.877 298.399C490.553 298.091 490.229 297.783 489.905 297.469C490.371 297.006 490.847 296.553 491.333 296.111C491.333 296.088 491.339 296.037 491.339 296.014C490.037 294.799 488.759 293.566 487.464 292.339C487.266 292.162 487.079 291.94 486.804 291.877C486.426 291.854 486.132 292.134 485.778 292.197C485.322 292.271 484.908 291.78 485.064 291.375C485.142 291.09 485.382 290.884 485.592 290.69C487.091 289.258 488.597 287.837 490.091 286.405M516.878 287.946C517.598 288.585 518.276 289.27 518.984 289.926C520.328 291.209 521.678 292.493 523.028 293.777C523.124 293.851 523.214 293.954 523.339 293.977C523.598 294 523.801 293.76 524.06 293.806C524.216 293.857 524.359 294 524.342 294.165C524.342 294.388 524.143 294.542 523.999 294.69C523.154 295.483 522.32 296.288 521.474 297.081C521.288 297.275 520.94 297.178 520.826 296.961C520.658 296.693 521.114 296.407 520.874 296.162C519.133 294.512 517.395 292.86 515.66 291.204C515.535 291.095 515.427 290.959 515.277 290.884C515.019 290.816 514.815 291.021 514.575 291.05C514.389 291.033 514.209 290.879 514.221 290.696C514.203 290.496 514.359 290.343 514.49 290.211C515.289 289.458 516.087 288.699 516.878 287.946M511.527 293.03C512.241 292.362 512.937 291.672 513.663 291.015C514.305 291.632 514.953 292.242 515.595 292.858C515.81 293.058 515.582 293.361 515.361 293.452C515.205 293.469 515.06 293.378 514.922 293.321C514.371 293.064 513.735 292.938 513.129 293.087C512.745 293.161 512.409 293.366 512.073 293.554C511.893 293.378 511.713 293.201 511.527 293.03M508.611 295.808C509.439 295.01 510.279 294.228 511.107 293.435C512.451 294.696 513.777 295.98 515.127 297.241C516.159 298.216 517.178 299.203 518.216 300.173C517.412 300.961 516.585 301.725 515.78 302.507C515.667 302.627 515.504 302.695 515.355 302.758C515.205 302.707 515.019 302.655 514.971 302.496C514.881 302.227 515.175 302.016 515.139 301.754C515.019 301.531 514.808 301.371 514.628 301.195L510.255 297.035C509.997 296.807 509.781 296.533 509.475 296.362C509.169 296.305 508.893 296.676 508.599 296.476C508.348 296.322 508.419 295.98 508.611 295.808M514.431 294.394C514.335 294.159 514.563 293.886 514.821 293.925C514.941 293.954 515.03 294.028 515.114 294.108C515.744 294.713 516.38 295.306 517.004 295.911C517.208 296.111 517.472 296.282 517.556 296.567C517.478 296.693 517.394 296.864 517.214 296.881C516.92 296.91 516.704 296.687 516.44 296.596C516.26 296.511 516.062 296.467 515.861 296.468C515.66 296.469 515.462 296.515 515.283 296.602C515.091 296.419 514.905 296.236 514.713 296.06C514.845 295.791 514.905 295.483 514.808 295.198C514.737 294.907 514.533 294.667 514.431 294.394M518.288 295.883C518.414 295.7 518.72 295.672 518.87 295.843C519.518 296.465 520.178 297.081 520.82 297.708C520.082 298.393 519.374 299.112 518.618 299.78C518.444 299.603 518.258 299.432 518.078 299.255C518.72 298.502 518.81 297.412 518.378 296.544C518.3 296.339 518.132 296.088 518.288 295.883" fill="white"/>
<path id="Vector_6" d="M479.688 298.154C479.928 298.062 480.156 297.92 480.42 297.925C480.738 297.982 480.936 298.251 481.158 298.45C484.176 301.309 487.181 304.173 490.193 307.032C490.361 307.209 490.577 307.385 490.607 307.637C490.595 307.882 490.457 308.099 490.349 308.316C486.791 308.31 483.24 308.31 479.688 308.31C479.688 304.926 479.682 301.537 479.688 298.154" fill="#F96302"/>
<path id="Vector_7" d="M507.613 297.999C508.681 297.914 509.743 298.279 510.625 298.832C511.315 299.272 511.957 299.78 512.449 300.413C513.037 301.16 513.397 302.073 513.403 303.015C513.421 304.088 512.977 305.172 512.173 305.93C511.988 305.76 511.806 305.587 511.627 305.411C511.735 305.217 511.861 305.012 511.825 304.784C511.765 304.441 511.519 304.161 511.273 303.928L507.223 300.076C506.947 299.819 506.635 299.54 506.228 299.511C506.006 299.489 505.807 299.597 505.622 299.7C505.447 299.517 505.208 299.38 505.1 299.152C505.759 298.507 506.659 298.056 507.613 297.999V297.999Z" fill="white"/>
</g>
<path id="Vector 2" opacity="0.25" d="M430.883 772.15H422.062V253.631C424.523 259.851 427.529 264.37 430.883 266.46V772.15Z" fill="white"/>
<path id="Vector 3" opacity="0.25" d="M586.921 287.297V303.856C586.921 273.209 529.098 248.362 457.808 248.362H435.078V231.814H457.755C529.035 231.814 586.921 256.641 586.921 287.297Z" fill="#F7F9FF"/>
<path id="Vector 4" opacity="0.25" d="M600 707.048V732.185C600 768.181 532.168 797.288 448.504 797.288H421.863V772.15H448.483C532.168 772.15 600 743.014 600 707.048Z" fill="#181818"/>
<path id="Vector 5" opacity="0.25" d="M600 707.048V732.185C600 768.181 532.168 797.288 448.504 797.288H421.863V772.15H448.483C532.168 772.15 600 743.014 600 707.048Z" fill="#181818"/>
<path id="Vector 6" opacity="0.25" d="M584.492 322.443C587.793 322.443 590.464 320.384 590.464 317.844C590.464 315.304 587.793 313.254 584.492 313.254C581.191 313.254 578.531 315.314 578.531 317.844C578.531 320.374 581.202 322.443 584.492 322.443Z" fill="#F7F9FF"/>
<path id="dropHeight" d="M517.944 324.343H507.861V698.499H517.944V324.343Z" fill="#963B00"/>
<g id="pull">
<path id="Vector 7" d="M587.668 343.271V376.097C587.679 376.26 587.679 376.424 587.668 376.587V377.427C587.311 382.325 585.007 386.911 581.226 390.252C577.444 393.595 572.467 395.444 567.304 395.425H464.274C459.138 395.437 454.188 393.6 450.415 390.283C446.644 386.968 444.331 382.417 443.941 377.547C443.941 377.137 443.941 376.717 443.941 376.307V343.311C443.946 340.764 444.478 338.244 445.507 335.893C446.535 333.542 448.042 331.407 449.939 329.611C451.836 327.814 454.087 326.39 456.563 325.421C459.038 324.452 461.691 323.956 464.369 323.963H567.283C572.675 323.968 577.846 326.003 581.665 329.623C585.485 333.242 587.643 338.153 587.668 343.281V343.271Z" fill="#994006"/>
<path id="Vector 8" d="M585.104 340.721V372.457C585.125 372.613 585.125 372.771 585.104 372.927V373.747C584.746 378.46 582.531 382.869 578.902 386.096C575.272 389.322 570.496 391.125 565.528 391.145H466.472C461.526 391.125 456.767 389.338 453.141 386.137C449.515 382.936 447.287 378.558 446.896 373.867C446.896 373.467 446.896 373.067 446.896 372.667V340.721C446.893 338.258 447.402 335.817 448.393 333.54C449.383 331.263 450.835 329.194 452.667 327.452C454.499 325.709 456.675 324.328 459.069 323.386C461.463 322.444 464.029 321.96 466.619 321.963H565.444C570.666 321.976 575.669 323.959 579.356 327.475C583.043 330.991 585.114 335.755 585.114 340.721H585.104Z" fill="#FF7B25"/>
<path id="Vector 9" d="M575.693 330.282C573.328 328.085 570.147 326.863 566.841 326.883H465.083C463.427 326.851 461.78 327.126 460.236 327.693C457.91 328.553 455.905 330.048 454.474 331.992C453.042 333.935 452.248 336.239 452.193 338.611V376.117C452.205 377.133 452.364 378.143 452.666 379.117C453.227 380.942 454.236 382.614 455.61 383.996C456.81 385.215 458.263 386.183 459.877 386.837C461.492 387.491 463.233 387.818 464.988 387.796H566.735C569.502 387.809 572.2 386.967 574.421 385.396C575.063 384.948 575.655 384.439 576.187 383.876C577.524 382.517 578.51 380.881 579.067 379.097C579.361 378.122 579.51 377.112 579.509 376.097V338.611C579.434 335.467 578.063 332.475 575.693 330.282ZM576.965 373.657C576.96 375.368 576.549 377.056 575.766 378.597C574.983 380.15 573.844 381.516 572.434 382.596C570.089 384.38 567.173 385.347 564.17 385.336H467.721C464.679 385.339 461.728 384.346 459.363 382.526C457.963 381.457 456.832 380.105 456.052 378.567C455.272 377.029 454.862 375.345 454.853 373.637V341.021C454.892 338.628 455.7 336.304 457.167 334.359C458.635 332.414 460.692 330.943 463.064 330.142C464.54 329.634 466.098 329.374 467.669 329.373H564.128C565.685 329.373 567.229 329.633 568.691 330.142C571.084 330.934 573.162 332.408 574.643 334.364C576.124 336.319 576.934 338.661 576.965 341.071V373.657Z" fill="#994006"/>
<path id="Vector 10" opacity="0.3" d="M582.19 337.222V340.111C582.27 336.667 580.909 333.333 578.406 330.842C577.167 329.608 575.685 328.619 574.043 327.933C572.4 327.246 570.632 326.876 568.839 326.843H463.086C461.291 326.878 459.521 327.249 457.876 327.935C456.232 328.621 454.747 329.608 453.504 330.84C452.261 332.072 451.286 333.525 450.634 335.116C449.981 336.707 449.664 338.404 449.702 340.111V337.222C449.629 333.776 450.997 330.443 453.507 327.957C456.018 325.471 459.463 324.034 463.086 323.963H568.839C572.458 324.042 575.897 325.483 578.4 327.971C580.904 330.458 582.266 333.789 582.19 337.232V337.222Z" fill="#F7F9FF"/>
<path id="Vector 11" opacity="0.15" d="M584.746 374.137C584.385 378.848 582.169 383.255 578.54 386.479C574.91 389.702 570.136 391.505 565.17 391.525H466.209C461.262 391.505 456.504 389.717 452.878 386.517C449.252 383.316 447.023 378.938 446.633 374.247C446.939 376.683 448.103 378.949 449.934 380.677C451.833 382.526 454.259 383.805 456.915 384.356C458.09 384.64 459.298 384.781 460.51 384.776H570.9C572.111 384.778 573.318 384.644 574.495 384.376C577.163 383.82 579.599 382.525 581.497 380.657C583.321 378.89 584.475 376.596 584.777 374.137H584.746Z" fill="#212121"/>
<path id="Vector 12" d="M481.379 367.728C479.899 367.399 478.496 366.817 477.236 366.008L479.339 361.609C480.422 362.257 481.593 362.762 482.819 363.109C484.076 363.492 485.388 363.688 486.709 363.689C489.179 363.689 490.336 363.109 490.336 361.959C490.328 361.657 490.225 361.365 490.041 361.119C489.855 360.876 489.595 360.694 489.295 360.599C488.216 360.206 487.105 359.899 485.973 359.679C484.545 359.407 483.141 359.039 481.768 358.579C480.653 358.19 479.661 357.536 478.887 356.679C478.028 355.699 477.595 354.444 477.678 353.17C477.663 351.917 478.048 350.69 478.782 349.65C479.617 348.538 480.775 347.683 482.114 347.19C483.844 346.532 485.698 346.219 487.56 346.271C489.011 346.277 490.457 346.435 491.871 346.741C493.195 347.021 494.468 347.489 495.645 348.13L493.7 352.58C491.795 351.557 489.652 351 487.466 350.96C486.52 350.897 485.573 351.084 484.732 351.5C484.474 351.639 484.257 351.839 484.101 352.08C483.952 352.323 483.872 352.599 483.87 352.88C483.878 353.165 483.976 353.441 484.154 353.67C484.341 353.895 484.593 354.062 484.879 354.15C485.95 354.541 487.055 354.838 488.181 355.04C489.61 355.301 491.017 355.668 492.386 356.139C493.5 356.536 494.498 357.181 495.298 358.019C496.164 358.996 496.605 360.252 496.528 361.529C496.546 362.749 496.172 363.945 495.456 364.958C494.598 366.029 493.433 366.841 492.102 367.298C490.396 367.973 488.556 368.294 486.709 368.238C484.94 368.282 483.174 368.111 481.452 367.728H481.379Z" fill="white"/>
<path id="Vector 13" d="M518.334 350.4C518.208 350.22 518.081 350.05 517.945 349.88C517.147 348.906 516.101 348.142 514.906 347.66C513.246 346.982 511.456 346.642 509.65 346.661H499.441V367.958H505.749V362.399H509.597C511.404 362.431 513.198 362.09 514.854 361.399C516.045 360.921 517.09 360.164 517.892 359.199C518.031 359.039 518.161 358.872 518.281 358.699C519.083 357.446 519.508 356.006 519.508 354.54C519.508 353.073 519.083 351.633 518.281 350.38L518.334 350.4ZM512.961 355.779C512.793 356.186 512.53 356.551 512.194 356.849C511.348 357.402 510.326 357.657 509.303 357.569H505.781V351.34H509.261C510.31 351.271 511.351 351.562 512.194 352.16C512.534 352.456 512.795 352.822 512.961 353.23C513.129 353.634 513.204 354.067 513.182 354.5C513.216 354.937 513.14 355.375 512.961 355.779Z" fill="white"/>
<path id="Vector 14" d="M522.623 346.691H528.931V367.958H522.623V346.691Z" fill="white"/>
<path id="Vector 15" d="M554.657 346.691V367.958H549.464L539.613 356.609V367.958H533.41V346.691H538.614L548.476 358.019V346.691H554.657Z" fill="white"/>
</g>
<path id="Vector_2_2" d="M422.357 225.575C418.135 207.51 407.563 191.354 392.384 179.773C377.206 168.194 358.33 161.882 338.872 161.882H100.515C77.8367 161.882 56.0873 170.449 40.0505 185.699C24.0136 200.95 15.0028 221.634 15 243.203V779.68C15.0028 801.248 24.0136 821.933 40.0505 837.183C56.0873 852.433 77.8367 861 100.515 861H338.872C350.104 861.013 361.229 858.918 371.609 854.837C381.99 850.754 391.421 844.765 399.363 837.211C407.306 829.658 413.603 820.688 417.896 810.815C422.187 800.943 424.39 790.362 424.376 779.68V243.203C424.381 237.274 423.704 231.363 422.357 225.575ZM376.288 768.851C376.288 798.197 352.329 821.945 322.744 821.945H116.684C87.1 821.945 63.1402 798.197 63.1402 768.851V521.33L78.5947 506.632L63.1402 491.943V256.331C63.1402 227.005 87.121 203.237 116.684 203.237H322.744C352.329 203.237 376.288 227.005 376.288 256.331V768.851Z" fill="#F96302"/>
<path id="Vector 17" opacity="0.2" d="M384.605 225.765C380.232 215.698 372.815 207.093 363.293 201.041C353.772 194.988 342.576 191.762 331.124 191.769H108.295C100.691 191.769 93.1616 193.194 86.1366 195.961C79.1115 198.729 72.7286 202.785 67.3522 207.9C61.976 213.014 57.7116 219.086 54.8026 225.768C51.8936 232.449 50.3971 239.61 50.3984 246.842V778.34C50.3971 785.572 51.8936 792.733 54.8026 799.414C57.7116 806.097 61.976 812.168 67.3522 817.282C72.7286 822.397 79.1115 826.453 86.1366 829.221C93.1616 831.989 100.691 833.413 108.295 833.413H331.176C338.779 833.412 346.308 831.987 353.332 829.218C360.356 826.449 366.737 822.393 372.112 817.278C377.487 812.165 381.751 806.094 384.659 799.412C387.567 792.731 389.063 785.571 389.062 778.34V246.842C389.049 239.606 387.535 232.443 384.605 225.765ZM376.289 768.851C376.289 798.197 352.329 821.945 322.745 821.945H116.685C87.1002 821.945 63.1405 798.197 63.1405 768.851V256.331C63.1405 227.005 87.1213 203.237 116.685 203.237H322.745C352.329 203.237 376.289 227.005 376.289 256.331V768.851Z" fill="white"/>
<g id="spinCont">
<path id="glass" opacity="0.5" d="M389.01 246.842V778.34C389.011 785.571 387.515 792.731 384.607 799.412C381.699 806.094 377.435 812.165 372.06 817.278C366.685 822.393 360.303 826.449 353.279 829.218C346.255 831.987 338.727 833.412 331.124 833.413H108.295C100.691 833.413 93.1616 831.989 86.1366 829.221C79.1115 826.453 72.7286 822.397 67.3522 817.282C61.976 812.168 57.7116 806.097 54.8026 799.414C51.8936 792.733 50.3971 785.572 50.3984 778.34V246.842C50.3971 239.61 51.8936 232.449 54.8026 225.768C57.7116 219.086 61.976 213.014 67.3522 207.9C72.7286 202.785 79.1115 198.729 86.1366 195.961C93.1616 193.194 100.691 191.769 108.295 191.769H331.176C338.779 191.77 346.308 193.196 353.332 195.964C360.356 198.733 366.737 202.789 372.112 207.904C377.487 213.017 381.751 219.089 384.659 225.77C387.567 232.451 389.063 239.611 389.062 246.842H389.01Z" fill="#CBFCFF"/>
<path id="Vector 18" opacity="0.5" d="M389.009 281.748V342.061L281.332 191.769H324.552L389.009 281.748Z" fill="#F7F9FF"/>
<path id="Vector 19" opacity="0.5" d="M180.887 831.064H137.678L50.418 709.258V648.925L180.887 831.064Z" fill="#F7F9FF"/>
<path id="Vector 20" opacity="0.5" d="M389.009 360.609V386.446L249.52 191.769H268.023L389.009 360.609Z" fill="#F7F9FF"/>
<path id="Vector 21" opacity="0.5" d="M109.336 668.793V694.63L50.3984 612.359V586.532L109.336 668.793Z" fill="#F7F9FF"/>
</g>
<g id="pointer">
<path id="Vector_3_2" d="M17.5 451.977L74.9671 506.632L17.5 561.287V451.977Z" fill="white" stroke="#F96302" stroke-width="5"/>
<path id="Vector_4_2" d="M78.5947 506.632L15 567.115V560.715L50.3982 530.609L63.1402 519.77L78.5947 506.632Z" fill="#AD5A1E"/>
<path id="Vector 24" opacity="0.45" d="M72.3615 503.692L73.1816 502.912L22.0661 454.298L21.2461 455.078L72.3615 503.692Z" fill="#F7F9FF"/>
</g>
<path id="Vector 25" d="M362.579 11H76.8176C73.5497 11 70.4157 12.2346 68.105 14.4323C65.7942 16.63 64.4961 19.6106 64.4961 22.7186V123.787C64.4961 126.894 65.7942 129.875 68.105 132.073C70.4157 134.27 73.5497 135.505 76.8176 135.505H362.579C365.846 135.505 368.98 134.27 371.291 132.073C373.602 129.875 374.9 126.894 374.9 123.787V22.7186C374.9 19.6106 373.602 16.63 371.291 14.4323C368.98 12.2346 365.846 11 362.579 11Z" fill="#FF7B25"/>
<g id="Vector 34" filter="url(#filter1_i_420_1951)">
<path d="M367.489 30.4078V116.118C367.486 119.225 366.188 122.206 363.878 124.405C361.568 126.603 358.435 127.841 355.168 127.846H84.22C80.9511 127.843 77.8171 126.606 75.5067 124.408C73.1963 122.208 71.8984 119.226 71.8984 116.118V30.4078C71.8971 28.6708 72.3031 26.9554 73.087 25.3865C73.8708 23.8176 75.0128 22.4349 76.4297 21.3388C77.3008 20.6485 78.2706 20.0795 79.3103 19.649C80.8664 19.0036 82.5434 18.6635 84.241 18.6491H355.168C358.435 18.6518 361.567 19.8873 363.877 22.0843C366.188 24.2815 367.486 27.2606 367.489 30.3678V30.4078Z" fill="#FF7B25"/>
</g>
<path id="Vector 26" d="M130.436 135.505H119.082V161.882H130.436V135.505Z" fill="#994006"/>
<path id="Vector 27" d="M324.92 135.505H313.576V161.882H324.92V135.505Z" fill="#994006"/>
<g id="blink">
<path id="Vector 28" d="M96.4661 92.7904C93.6934 92.1677 91.0569 91.0882 88.6758 89.6008L92.5762 81.3317C96.7243 83.8114 101.503 85.1731 106.401 85.2713C110.964 85.2713 113.224 84.1714 113.224 82.0116C113.22 81.4492 113.03 80.9022 112.681 80.4482C112.332 79.9942 111.842 79.6561 111.279 79.4819C109.236 78.721 107.125 78.1387 104.971 77.7422C102.291 77.2217 99.6531 76.5234 97.0759 75.6524C94.949 74.8875 93.0659 73.6131 91.609 71.9528C90.0129 70.0957 89.203 67.7388 89.3381 65.3436C89.3123 63.0004 90.0465 60.7066 91.4408 58.7744C93.0169 56.659 95.2098 55.0289 97.7487 54.0849C100.995 52.866 104.468 52.2844 107.957 52.3751C110.702 52.3747 113.439 52.6666 116.115 53.245C118.595 53.7779 120.979 54.6538 123.191 55.8447L119.511 64.3537C115.98 62.4421 112.008 61.3878 107.947 61.2841C106.165 61.1511 104.38 61.4977 102.795 62.284C102.309 62.5391 101.903 62.9117 101.618 63.3638C101.328 63.8159 101.171 64.3341 101.166 64.8637C101.191 65.3955 101.389 65.9067 101.734 66.3261C102.079 66.7454 102.553 67.0521 103.089 67.2034C105.085 67.9385 107.147 68.4974 109.25 68.8732C111.93 69.4048 114.569 70.1132 117.146 70.9929C119.238 71.7323 121.107 72.9475 122.592 74.5325C124.222 76.3664 125.053 78.7238 124.915 81.1218C124.941 83.4403 124.206 85.7088 122.812 87.611C121.215 89.7074 119.029 91.3329 116.504 92.3004C113.273 93.5078 109.819 94.0825 106.349 93.9902C103.013 94.0016 99.6912 93.5983 96.4661 92.7904Z" fill="white"/>
<path id="Vector 29" d="M165.886 60.2842C164.306 57.9946 162.059 56.1915 159.42 55.0948C156.301 53.8204 152.932 53.1899 149.538 53.245H130.361V93.1003H142.21V82.6616H149.569C152.952 82.7405 156.313 82.1338 159.431 80.8818C161.404 80.0651 163.167 78.8481 164.595 77.3161C166.022 75.7841 167.081 73.974 167.697 72.0123C168.313 70.0507 168.471 67.9847 168.16 65.9589C167.848 63.9332 167.076 61.9964 165.896 60.2842H165.886ZM155.761 70.423C155.449 71.1861 154.956 71.8705 154.321 72.4228C152.742 73.5479 150.792 74.0977 148.823 73.9726H142.21V62.204H148.812C150.777 62.0649 152.729 62.6045 154.311 63.7238C154.934 64.2743 155.423 64.9483 155.742 65.6981C156.062 66.4479 156.205 67.2553 156.161 68.0633C156.212 68.8683 156.076 69.6742 155.761 70.423Z" fill="white"/>
<path id="Vector 30" d="M173.918 53.315H185.777V93.1703H173.918V53.315Z" fill="white"/>
<path id="Vector 31" d="M234.106 53.315V93.1703H224.213L205.835 71.9928V93.2203H194.197V53.365H204.059L222.552 74.6025V53.315H234.106Z" fill="white"/>
<path id="Vector 32" d="M297.805 93.1903V72.0928L287.008 89.3008H281.751L271.027 72.6828V93.2403H259.957V53.385H269.818L284.611 76.3823L298.982 53.385H308.833V93.2403L297.805 93.1903Z" fill="white"/>
<path id="Vector 33" d="M350.73 84.4714V93.1903H317.088V53.335H349.973V62.064H328.81V68.7632H347.45V77.2022H328.81V84.4914L350.73 84.4714Z" fill="white"/>
</g>
<path id="Vector 35" opacity="0.5" d="M374.554 50.4808V55.9947L337.758 11H342.285L374.554 50.4808Z" fill="#F7F9FF"/>
<path id="Vector 36" opacity="0.5" d="M107.518 134.985V134.473L64.4141 92.9904V99.6333L101.093 134.985H107.518Z" fill="#F7F9FF"/>
<path id="Vector 37" opacity="0.5" d="M374.554 70.9757V96.9899L300.961 11H323.191L374.554 70.9757Z" fill="#F7F9FF"/>
</g>
</g>
<defs>
<filter id="filter0_d_420_1951" x="0" y="0" width="615" height="880" filterUnits="userSpaceOnUse" color-interpolation-filters="sRGB">
<feFlood flood-opacity="0" result="BackgroundImageFix"/>
<feColorMatrix in="SourceAlpha" type="matrix" values="0 0 0 0 0 0 0 0 0 0 0 0 0 0 0 0 0 0 127 0" result="hardAlpha"/>
<feOffset dy="4"/>
<feGaussianBlur stdDeviation="7.5"/>
<feComposite in2="hardAlpha" operator="out"/>
<feColorMatrix type="matrix" values="0 0 0 0 0 0 0 0 0 0 0 0 0 0 0 0 0 0 0.1 0"/>
<feBlend mode="normal" in2="BackgroundImageFix" result="effect1_dropShadow_420_1951"/>
<feBlend mode="normal" in="SourceGraphic" in2="effect1_dropShadow_420_1951" result="shape"/>
</filter>
<filter id="filter1_i_420_1951" x="71.8984" y="18.6491" width="295.592" height="109.197" filterUnits="userSpaceOnUse" color-interpolation-filters="sRGB">
<feFlood flood-opacity="0" result="BackgroundImageFix"/>
<feBlend mode="normal" in="SourceGraphic" in2="BackgroundImageFix" result="shape"/>
<feColorMatrix in="SourceAlpha" type="matrix" values="0 0 0 0 0 0 0 0 0 0 0 0 0 0 0 0 0 0 127 0" result="hardAlpha"/>
<feOffset/>
<feGaussianBlur stdDeviation="7.5"/>
<feComposite in2="hardAlpha" operator="arithmetic" k2="-1" k3="1"/>
<feColorMatrix type="matrix" values="0 0 0 0 0 0 0 0 0 0 0 0 0 0 0 0 0 0 0.25 0"/>
<feBlend mode="normal" in2="shape" result="effect1_innerShadow_420_1951"/>
</filter>
</defs>
</svg>
