<svg width="54" height="55" viewBox="0 0 54 55" fill="none" xmlns="http://www.w3.org/2000/svg">
<path d="M0.00390625 0.00244141H53.9987V53.9972H0.00390625V0.00244141Z" fill="white"/>
<path d="M0.00254486 0.00226336H33.8805C36.6077 0.00226336 39.3351 -0.00346256 42.0566 0.00775071C41.3025 0.773116 40.5311 1.53299 39.7717 2.2986C40.0719 2.61591 40.3894 2.9108 40.69 3.22262C41.3819 2.74641 42.1642 2.36659 43.0148 2.30409C43.7801 2.22464 44.5514 2.42314 45.2543 2.72947C45.5208 2.8428 45.7704 3.02412 46.0707 3.05251C46.3656 3.03557 46.5868 2.77481 46.6889 2.5138C46.7738 2.33272 46.6944 2.11704 46.5529 1.98654C45.8951 1.32328 45.2316 0.671243 44.5796 0.00775071C47.7207 -0.00918849 50.8619 0.00775071 53.9976 0.00226336C53.9976 3.06396 54.003 6.13139 53.9976 9.19882C53.3512 8.56396 52.7216 7.9174 52.0808 7.28254C51.9107 7.10647 51.6332 7.01581 51.4006 7.12365C51.2474 7.19737 51.1 7.31642 51.032 7.4808C50.9468 7.8098 51.0945 8.13284 51.2248 8.42749C51.6218 9.26681 51.7976 10.2137 51.6786 11.138C51.5991 11.7674 51.3722 12.3853 51.032 12.924C50.9413 13.0543 50.8564 13.1903 50.777 13.3267C51.1057 13.6099 51.3837 13.9501 51.7182 14.2281C52.4666 13.457 53.2377 12.7028 53.9976 11.9372C53.9976 17.0572 54.003 22.1773 53.9976 27.2973C53.8499 27.3483 53.6855 27.4504 53.5323 27.3765C53.3283 27.2462 53.1752 27.0535 53.0051 26.8891C51.168 25.0632 49.3479 23.2204 47.5053 21.4005C46.7738 22.132 46.054 22.869 45.3109 23.5835C45.7024 24.0256 46.139 24.4169 46.5472 24.8421C48.0214 26.3165 49.4953 27.7907 50.9755 29.2646C51.1 29.3951 51.2474 29.5087 51.3154 29.6788C51.3381 29.8658 51.2078 30.0245 51.1568 30.1946C51.0831 30.3931 51.242 30.6312 51.4517 30.6367C51.6387 30.671 51.7976 30.546 51.9167 30.4215C52.6083 29.7239 53.3057 29.0322 53.9976 28.3404V53.997H28.3351C28.9929 53.3395 29.6507 52.6872 30.3084 52.0295C28.0697 49.7965 25.8339 47.5606 23.6008 45.322C22.8695 46.0251 22.1664 46.7566 21.4407 47.4652C21.2875 47.6241 21.1174 47.777 21.0439 47.9925C21.0098 48.2022 21.2026 48.4007 21.4065 48.4121C21.5881 48.3895 21.741 48.2702 21.9226 48.2306C22.0812 48.2196 22.2063 48.3441 22.3193 48.4462C23.6463 49.7842 24.9788 51.1112 26.3113 52.4436C26.6455 52.7948 27.0086 53.1124 27.3202 53.4755C27.4622 53.6342 27.3658 53.8381 27.2863 53.997H11.938L15.5608 50.374C15.7875 50.1585 16.0201 49.9092 16.054 49.5802C16.105 49.2004 15.7197 48.8203 15.3397 48.8998C15.0221 48.962 14.7616 49.2116 14.4326 49.2116C14.2229 49.1947 14.064 49.0415 13.9223 48.9055C11.0362 46.0251 8.15603 43.1393 5.27565 40.2586C5.08287 40.0661 4.8505 39.8791 4.78226 39.6009C4.77105 39.2723 5.00343 39.0056 5.0886 38.7052C5.1962 38.3254 4.83904 37.9112 4.45326 37.9399C4.187 37.9568 3.9489 38.1097 3.76758 38.297C2.52004 39.5615 1.25008 40.8088 0.00254486 42.0733C-0.00318107 28.0512 0.00254486 14.0241 0.00254486 0.00226336Z" fill="#F96302"/>
<path d="M38.9486 3.11521C38.9997 3.05867 39.0904 3.00737 39.1414 3.09254C43.0943 7.03976 47.0444 10.9898 50.9917 14.9426C49.6049 16.3284 48.2195 17.7157 46.8356 19.1044C46.6541 19.2745 46.4329 19.4162 46.1836 19.4331C45.8376 19.4618 45.4917 19.1497 45.5201 18.798C45.5315 18.4523 45.8262 18.1858 45.8319 17.8342C45.8434 17.613 45.6733 17.4489 45.5315 17.2955C42.6001 14.37 39.6744 11.4388 36.743 8.50712C36.5786 8.34847 36.3973 8.14997 36.1477 8.16715C35.7791 8.17263 35.5014 8.51285 35.1273 8.47325C34.9116 8.47873 34.7358 8.30863 34.6282 8.13303C34.4807 7.82693 34.6167 7.45833 34.8381 7.23167C36.2102 5.85936 37.5823 4.48728 38.9486 3.11521M44.6414 4.26612C44.7547 4.05641 44.9702 3.86364 45.2252 3.89751C45.5086 3.92042 45.7129 4.15256 45.8999 4.33984C47.0326 5.47709 48.1666 6.61297 49.3021 7.74749C49.5175 7.95744 49.7725 8.16142 49.8236 8.47325C49.852 8.79628 49.5571 9.08544 49.2453 9.11956C48.9845 9.12529 48.7464 8.98357 48.5198 8.85879C48.0376 8.57536 47.4934 8.34847 46.9206 8.37686C46.6257 8.37113 46.3425 8.49019 46.0757 8.60924C45.7639 8.27475 45.4068 7.97437 45.1119 7.62843C45.2025 7.37339 45.3216 7.12956 45.3388 6.8571C45.3786 6.23942 45.1291 5.64965 44.817 5.1336C44.6583 4.87856 44.5336 4.56077 44.6414 4.26612M19.6537 7.27128C20.2664 6.62496 20.9127 6.01826 21.5249 5.37743C22.1089 5.9443 22.6758 6.51713 23.2486 7.08972C23.4357 7.27128 23.2656 7.57738 23.0558 7.6511C22.88 7.67376 22.7268 7.55471 22.5682 7.49793C21.956 7.19756 21.1961 7.16368 20.5839 7.49244C20.425 7.56044 20.2945 7.69643 20.1244 7.72482C19.9543 7.58883 19.8126 7.41872 19.6537 7.27128M19.2684 7.63392C20.1017 8.43913 20.907 9.27273 21.7291 10.0834C23.0162 11.3648 24.2974 12.6577 25.5903 13.9391C24.8537 14.6842 24.1128 15.4251 23.3677 16.1617C23.2145 16.3316 22.9084 16.4056 22.761 16.1956C22.5796 16.0028 22.7779 15.7647 22.8347 15.5662C22.9027 15.4188 22.7839 15.2885 22.6872 15.1867C21.2028 13.7076 19.721 12.2258 18.242 10.7412C18.106 10.6164 17.9925 10.4635 17.8281 10.3783C17.6014 10.3273 17.4256 10.5315 17.2044 10.5429C17.0343 10.5258 16.8757 10.3559 16.8983 10.1798C16.9095 10.0438 16.989 9.92477 17.0854 9.82838C17.8111 9.0969 18.5484 8.37686 19.2684 7.63392M22.228 8.54124C22.1545 8.35419 22.2848 8.12754 22.4833 8.09915C22.6307 8.07649 22.7497 8.18957 22.8519 8.2862C23.4641 8.8984 24.0763 9.51656 24.6944 10.1233C24.802 10.2423 24.9552 10.3499 24.9666 10.5258C24.9893 10.7016 24.8192 10.8717 24.6379 10.8545C24.3995 10.8545 24.2182 10.6675 24.0028 10.588C23.6852 10.4408 23.2997 10.4294 22.9879 10.5995C22.8235 10.4351 22.6589 10.265 22.4887 10.1118C22.5627 9.86226 22.6307 9.59601 22.5682 9.335C22.5229 9.04035 22.3186 8.81346 22.228 8.54124M33.086 8.98357C33.2392 8.8304 33.4317 8.71708 33.6474 8.68868C34.027 8.63214 34.424 9.00051 34.3505 9.38605C34.2994 9.72627 34.016 9.99825 34.0384 10.3559C34.0952 10.605 34.2994 10.7751 34.4636 10.9511C37.3611 13.8427 40.2584 16.7286 43.1443 19.6259C43.3032 19.7679 43.4619 19.9549 43.6887 19.9549C44.029 19.9549 44.2897 19.6999 44.613 19.6429C44.9871 19.5808 45.3557 19.9492 45.3101 20.3235C45.2877 20.5786 45.1345 20.7997 44.9589 20.9753C43.5015 22.4269 42.0499 23.8898 40.5929 25.3414C40.4059 25.5284 40.1678 25.6985 39.8901 25.6985C39.5835 25.7154 39.2888 25.4549 39.2492 25.1543C39.2094 24.7573 39.578 24.4624 39.5666 24.0654C39.5496 23.8784 39.4194 23.7254 39.2946 23.5892C36.7487 21.0493 34.2085 18.5034 31.6629 15.9632C33.7664 19.8698 35.8869 23.7653 37.9905 27.6718C38.0244 27.7283 38.0528 27.7909 38.0812 27.8589C37.9282 28.0003 37.7808 28.1535 37.6333 28.3067C33.4205 26.2317 29.2134 24.1334 25.0062 22.0528C24.343 21.724 23.6852 21.3385 22.9368 21.2478C22.6872 21.2134 22.5171 21.4179 22.3358 21.5482C22.1485 21.6956 21.899 21.7863 21.6668 21.7125C21.3889 21.588 21.1961 21.259 21.2813 20.9584C21.3378 20.7544 21.4795 20.5843 21.627 20.4366C22.9879 19.0817 24.343 17.7211 25.7038 16.3714C27.8241 17.409 29.9503 18.424 32.0768 19.4618C32.1448 19.5126 32.2183 19.5637 32.2808 19.6316C32.3149 19.5918 32.3433 19.5522 32.3772 19.5126L32.2977 19.5238C31.1809 17.3976 30.0074 15.2997 28.8901 13.1735C30.2963 11.7788 31.6855 10.3783 33.086 8.98357M25.6413 9.94171C25.7435 9.75466 26.0326 9.732 26.1686 9.89065C26.7412 10.469 27.3255 11.0473 27.9036 11.6258C27.2576 12.2782 26.6076 12.9264 25.9534 13.5705C25.806 13.4004 25.6072 13.2644 25.4939 13.0659C25.6809 12.7484 25.8794 12.4251 25.9305 12.051C26.0269 11.5349 25.942 10.9907 25.7208 10.5145C25.6583 10.333 25.5223 10.1233 25.6413 9.94171M16.1215 10.7922C16.2348 10.6732 16.3596 10.5484 16.524 10.5088C16.6886 10.4749 16.8926 10.5768 16.9153 10.7581C16.9551 10.9566 16.8077 11.1212 16.7681 11.3138C16.7452 11.467 16.8699 11.5748 16.9606 11.6769C18.4746 13.1905 19.9827 14.7045 21.4967 16.2126C21.5988 16.3092 21.7064 16.4282 21.8539 16.4621C22.0352 16.4452 22.1881 16.3261 22.3642 16.2865C22.5796 16.2636 22.7779 16.4962 22.7099 16.7002C22.6818 16.8534 22.5627 16.9669 22.4606 17.0745C21.7234 17.8118 20.9862 18.5487 20.2492 19.2802C20.1189 19.4107 19.9488 19.5467 19.7558 19.5014C19.6482 19.4558 19.5575 19.3709 19.5177 19.2633C19.4612 19.0137 19.7277 18.8095 19.6651 18.5599C19.6086 18.4638 19.5292 18.3898 19.4554 18.3106C18.7638 17.6245 18.0776 16.9271 17.3803 16.2412C17.1373 16.4896 16.8916 16.7353 16.643 16.9782C16.4729 16.8138 16.3028 16.6492 16.1442 16.4736C16.3935 16.2297 16.6376 15.9804 16.8871 15.7363C16.2744 15.1356 15.6677 14.5229 15.0613 13.9162C14.9308 13.7917 14.8174 13.6557 14.6643 13.565C14.3866 13.4741 14.1201 13.8654 13.8536 13.65C13.6379 13.497 13.7061 13.1905 13.882 13.0318C14.6247 12.2776 15.3786 11.5407 16.1215 10.7922" fill="white"/>
<path d="M13.2189 13.7349C13.3893 13.6268 13.6443 13.695 13.7235 13.8878C13.803 14.1202 13.5933 14.3187 13.5875 14.5456C13.5818 14.6646 13.6782 14.7496 13.7519 14.829C15.3225 16.3998 16.8876 17.9702 18.4582 19.535C18.7413 19.8411 19.1045 19.3138 19.4106 19.5407C19.6091 19.6996 19.5411 20.0112 19.371 20.1587C18.6337 20.9016 17.891 21.6328 17.1596 22.3755C17.0405 22.4891 16.9215 22.6251 16.7571 22.6762C16.5755 22.7272 16.3544 22.6136 16.3319 22.4211C16.2978 22.1945 16.502 22.0184 16.4906 21.7972C16.462 21.7008 16.3999 21.6216 16.3319 21.5479C14.8453 20.0672 13.3615 18.5835 11.8807 17.097C11.7393 16.9667 11.6202 16.8021 11.4329 16.7341C11.2289 16.7229 11.0588 16.876 10.8603 16.8985C10.6902 16.9042 10.5428 16.751 10.537 16.5869C10.5201 16.4108 10.6449 16.2693 10.7639 16.1503C11.5009 15.4131 12.2379 14.6758 12.9696 13.9389C13.0488 13.8651 13.1225 13.7914 13.2189 13.7349M9.11964 17.7888C9.45986 17.4598 9.78862 17.1196 10.1288 16.7851C10.7243 17.3637 11.3081 17.9644 11.9036 18.5485C12.0057 18.6618 12.1303 18.7639 12.1868 18.9114C12.2551 19.1893 11.9378 19.4954 11.6598 19.3706C11.3819 19.2458 11.1609 19.0247 10.8942 18.8772C10.4464 18.5995 9.92461 18.4237 9.39186 18.4862C9.23869 18.3276 9.06859 18.1799 8.9326 18.01C8.97769 17.9191 9.05165 17.8568 9.11964 17.7888M6.64747 20.2608C7.28257 19.6371 7.90622 19.0077 8.5356 18.3784C9.72721 19.5757 10.9216 20.7702 12.1188 21.9618C12.7766 22.6136 13.4174 23.2774 14.0807 23.918C14.268 24.1277 14.5173 23.9521 14.7215 23.8781C14.9255 23.7875 15.1638 23.969 15.1581 24.1842C15.1581 24.3317 15.0729 24.4564 14.9768 24.5588C14.2057 25.3242 13.4458 26.0895 12.6805 26.8551C12.5726 26.9627 12.4364 27.0703 12.2777 27.0591C12.1019 27.0763 11.9318 26.9062 11.9487 26.7358C11.9602 26.5545 12.1019 26.4071 12.1019 26.2255C12.1133 26.0723 11.9828 25.976 11.8922 25.8738C10.0835 24.0766 8.29177 22.2625 6.47737 20.4705C6.53415 20.3968 6.5852 20.3288 6.64747 20.2608M49.2004 19.7051C49.9035 20.3969 50.6009 21.0943 51.2928 21.7972C51.5137 22.0072 51.355 22.4266 51.0601 22.4722C50.7879 22.5118 50.5782 22.2963 50.3685 22.1546C49.8071 21.7688 49.1436 21.4062 48.4408 21.5252C48.2535 21.3551 48.0722 21.1793 47.919 20.981C48.3556 20.5614 48.7753 20.1303 49.2004 19.7051M6.06916 20.856C6.27911 20.9355 6.40937 21.1736 6.57948 21.321C6.48882 21.9788 6.8004 22.5967 7.16901 23.1128C7.27685 23.2774 7.40711 23.4303 7.47511 23.6174C7.54907 23.8669 7.30524 24.1277 7.05568 24.0993C6.91397 24.0993 6.81758 23.9802 6.72692 23.8953C6.10876 23.2714 5.48535 22.6592 4.86719 22.0356C5.2754 21.6498 5.65546 21.2361 6.06916 20.856M18.6848 24.0542C19.813 23.6911 21.0377 23.6515 22.2 23.8896C24.1733 24.3092 25.9195 25.4659 27.3145 26.9002C28.6808 28.2837 29.7695 30.0189 30.1381 31.9522C30.3421 33.0124 30.2967 34.1237 29.9909 35.1613C29.6903 36.1877 29.1456 37.1346 28.4597 37.951C28.1648 37.6392 27.8418 37.35 27.5581 37.0325C27.5581 36.8793 27.6545 36.7488 27.6831 36.6016C27.836 36.1027 27.6831 35.5414 27.303 35.1782C24.5023 32.3718 21.69 29.5652 18.8888 26.7585C18.6337 26.4977 18.3107 26.288 17.9421 26.2596C17.6415 26.22 17.3466 26.3276 17.0632 26.4295C16.9496 26.492 16.8761 26.3505 16.8024 26.2935C16.5755 26.0499 16.326 25.8288 16.0993 25.5792C16.0993 25.5623 16.0936 25.5281 16.0936 25.5112C16.8477 24.8649 17.7324 24.3603 18.6848 24.0542M26.328 23.7421C26.5887 23.8271 26.8268 23.9576 27.0707 24.0823C27.9837 24.5247 28.8906 24.9839 29.8093 25.4318C29.8885 25.4716 29.9623 25.5339 30.0305 25.5961C30.8013 26.3787 31.5784 27.1498 32.355 27.9266C32.7778 28.3746 33.2976 28.7198 33.8745 28.9358C34.277 29.089 34.7308 29.089 35.1332 28.947C35.3375 28.879 35.5586 28.7998 35.7741 28.8678C35.8819 28.9122 35.9753 28.9855 36.0443 29.0795C36.1133 29.1735 36.1551 29.2846 36.1651 29.4008C36.1482 29.7126 35.9497 29.9734 35.74 30.1888C35.0463 30.8919 34.347 31.5894 33.6421 32.2812C33.4551 32.4513 33.2396 32.6269 32.9786 32.6553C32.6045 32.7118 32.2359 32.3153 32.3493 31.9522C32.4571 31.5836 32.6045 31.2095 32.5423 30.8239C32.4514 30.1774 32.0828 29.6048 31.6745 29.1116C30.1381 27.5694 28.5959 26.0327 27.0537 24.4848C26.8154 24.2353 26.5546 24.0086 26.328 23.7421M43.621 25.2843C44.0466 24.8592 44.4772 24.4338 44.9026 24.0031C45.0897 24.1561 45.2541 24.3376 45.4299 24.5077C45.3562 25.0746 45.5492 25.6357 45.8438 26.1122C45.9968 26.3844 46.2179 26.6168 46.3542 26.9002C46.4279 27.0364 46.3768 27.1894 46.3258 27.3254C47.0413 27.8088 47.6653 28.4154 48.1686 29.1171C48.7411 29.928 49.1436 30.8919 49.121 31.9011C49.1267 32.8595 48.7128 33.7778 48.106 34.5035C47.9417 34.3334 47.7489 34.1805 47.6069 33.9877C47.6356 33.7778 47.7374 33.5738 47.6864 33.3641C47.6298 33.0919 47.4199 32.8991 47.2328 32.7118C45.7362 31.2207 44.2449 29.7298 42.7537 28.2384C42.6063 28.091 42.4305 27.955 42.2205 27.938C42.0223 27.9151 41.8238 27.9719 41.6424 28.0342C41.4666 27.87 41.291 27.694 41.1209 27.5239C41.8748 26.8776 42.8556 26.4636 43.8593 26.5147C44.2449 26.5035 44.6192 26.5941 44.9933 26.6791C44.5397 26.2086 44.0576 25.7662 43.621 25.2843M13.9504 28.6125C14.2622 27.745 14.7554 26.9513 15.3394 26.2425C15.6286 26.5376 15.9349 26.8208 16.2184 27.1214C16.2749 27.3029 16.1277 27.4731 16.0993 27.6544C15.9519 28.142 16.1446 28.675 16.502 29.0264C19.2574 31.7878 22.0187 34.5434 24.7801 37.3045C25.0465 37.5939 25.3696 37.8658 25.7778 37.9284C26.1407 37.9851 26.4981 37.8604 26.8326 37.7356C27.1387 38.0417 27.445 38.3423 27.7511 38.6484C27.0819 39.2324 26.3051 39.6917 25.4774 40.015C24.2299 40.4967 22.8351 40.5761 21.5253 40.2872C19.5351 39.8504 17.7832 38.6541 16.3827 37.1969C15.0901 35.842 14.0466 34.1805 13.6782 32.3263C13.4289 31.0961 13.5083 29.7921 13.9504 28.6125M39.7202 30.2513C39.7884 29.3896 40.1682 28.5674 40.7353 27.9209C40.8995 28.091 41.0756 28.2611 41.2454 28.4312C41.1832 28.6354 41.0865 28.8509 41.1436 29.0661C41.1774 29.2591 41.3077 29.4122 41.4439 29.5482C42.9408 31.0394 44.4262 32.5362 45.9233 34.0273C46.0989 34.1974 46.269 34.4017 46.5185 34.4697C46.7454 34.5322 46.9778 34.4525 47.1987 34.3845C47.3691 34.5548 47.5449 34.7249 47.7093 34.9063C46.9947 35.4958 46.1046 35.91 45.1634 35.91C44.2506 35.9496 43.3547 35.6263 42.5951 35.1501C42.0449 34.7987 41.5403 34.3733 41.1209 33.8799C41.3192 34.5434 41.2741 35.2863 40.962 35.91C40.6559 36.5222 40.1797 37.0213 39.709 37.5032C39.5389 37.3331 39.363 37.157 39.1872 36.9872C39.3349 36.7488 39.4313 36.4654 39.3404 36.1877C39.2328 35.904 39.0002 35.7 38.7962 35.4846C38.3743 35.0579 37.9509 34.6326 37.526 34.2089C37.2766 33.9763 37.0099 33.7098 36.6528 33.6871C36.443 33.6647 36.256 33.7723 36.0802 33.8744C35.9046 33.7043 35.7345 33.5285 35.5586 33.3586C36.2388 32.6724 37.0156 31.9636 38.0136 31.8388C38.83 31.7026 39.6522 32.0543 40.2305 32.6156C39.8676 31.8899 39.641 31.0732 39.7202 30.2513M9.83395 32.2301C10.0041 32.0657 10.2252 31.9409 10.4633 31.924C10.8546 31.9011 11.212 32.3093 11.1039 32.6894C11.019 32.9785 10.8093 33.2336 10.7978 33.5456C10.8205 33.8176 11.0474 34.0104 11.2289 34.192L19.9605 42.9235C20.0967 43.054 20.2497 43.1843 20.4424 43.2012C20.7712 43.2012 21.0265 42.9576 21.3383 42.8839C21.7124 42.8102 22.0867 43.1504 22.0698 43.5245C22.0583 43.7798 21.9166 44.0122 21.7408 44.1935L17.3466 48.5879C17.1538 48.7749 16.9157 48.9393 16.638 48.9393C16.2978 48.9508 15.9803 48.6277 16.0084 48.2815C16.0428 47.9416 16.326 47.6693 16.3319 47.3177C16.3205 47.108 16.1559 46.9491 16.0256 46.8019C14.7215 45.4921 13.4117 44.1935 12.1133 42.8896C12.0623 42.85 11.9943 42.7365 11.9206 42.8157C11.467 43.2523 11.0304 43.7118 10.5767 44.1481C10.2706 43.842 9.96446 43.5359 9.65812 43.2241C10.0979 42.7644 10.5478 42.3145 11.0075 41.8747C11.0075 41.8518 11.0135 41.801 11.0135 41.7781C9.7829 40.5706 8.5752 39.3458 7.35057 38.1269C7.16352 37.951 6.98745 37.7301 6.72692 37.6676C6.36977 37.6447 6.09182 37.9226 5.75733 37.9851C5.32645 38.0589 4.93518 37.5712 5.08263 37.1685C5.15635 36.885 5.383 36.6808 5.5815 36.4883C6.9989 35.0652 8.42203 33.6532 9.83395 32.2301M35.1502 33.7611C35.8306 34.3959 36.4714 35.0764 37.1404 35.7284C38.4106 37.0041 39.6863 38.2798 40.962 39.5555C41.0527 39.6294 41.1376 39.7313 41.2566 39.754C41.5007 39.7769 41.6932 39.5385 41.9373 39.5839C42.0848 39.6349 42.2205 39.7769 42.2038 39.941C42.2038 40.1622 42.0165 40.3154 41.8803 40.4628C41.081 41.2511 40.2928 42.0503 39.4935 42.8386C39.3177 43.0313 38.9887 42.935 38.8811 42.7195C38.7224 42.453 39.1533 42.1694 38.9267 41.9258C37.2813 40.2862 35.6388 38.6438 33.9993 36.9984C33.8802 36.8908 33.7783 36.7548 33.6364 36.6808C33.3926 36.6128 33.1998 36.817 32.9731 36.8454C32.7973 36.8285 32.6272 36.6753 32.6384 36.4938C32.6215 36.2953 32.7689 36.1426 32.8935 36.0121C33.6478 35.2634 34.402 34.5095 35.1502 33.7611M30.0928 38.813C30.7672 38.1495 31.425 37.4636 32.1111 36.8113C32.7179 37.4238 33.3303 38.0305 33.937 38.6427C34.141 38.8412 33.9256 39.1418 33.7158 39.2324C33.5684 39.2494 33.4322 39.1587 33.3017 39.1022C32.7804 38.8467 32.1791 38.7221 31.6065 38.8696C31.2437 38.9433 30.9261 39.1473 30.6086 39.3343C30.4385 39.1587 30.2686 38.9831 30.0928 38.813M27.3369 41.5741C28.1197 40.7803 28.9135 40.0035 29.6958 39.2153C30.9657 40.4685 32.2187 41.7442 33.4947 42.9972C34.47 43.9668 35.4339 44.9479 36.4147 45.9117C35.655 46.694 34.8727 47.4539 34.1126 48.2305C34.005 48.3498 33.8518 48.4178 33.7101 48.48C33.5684 48.4292 33.3926 48.3782 33.3472 48.2195C33.2623 47.9528 33.54 47.7431 33.5061 47.4823C33.3926 47.2611 33.1941 47.1022 33.024 46.9266L28.8906 42.793C28.647 42.5664 28.4427 42.2944 28.1536 42.1243C27.8644 42.0672 27.6036 42.4359 27.3259 42.2374C27.0878 42.0844 27.1558 41.7442 27.3369 41.5741M32.8369 40.1681C32.7462 39.9355 32.9617 39.6633 33.2055 39.7029C33.3188 39.7313 33.4038 39.805 33.4832 39.8845C34.0785 40.4857 34.6797 41.0752 35.2695 41.6762C35.462 41.8747 35.7116 42.0448 35.791 42.3283C35.7173 42.453 35.6378 42.6231 35.468 42.6401C35.1898 42.6685 34.9858 42.4473 34.7362 42.3564C34.566 42.272 34.3785 42.2285 34.1885 42.2296C33.9985 42.2306 33.8114 42.2761 33.6421 42.3624C33.4608 42.1808 33.285 41.9993 33.1034 41.8237C33.2282 41.5572 33.285 41.2511 33.1941 40.9674C33.1261 40.6782 32.9333 40.4401 32.8369 40.1681M36.4827 41.6478C36.6017 41.4665 36.8909 41.4381 37.0326 41.6082C37.645 42.2264 38.2689 42.8386 38.8754 43.4622C38.178 44.1427 37.509 44.857 36.7945 45.5205C36.6303 45.3446 36.4543 45.1745 36.2842 44.9987C36.8909 44.2505 36.976 43.1673 36.5678 42.3056C36.4939 42.1014 36.3352 41.8518 36.4827 41.6478" fill="white"/>
<path d="M0.00254486 43.9048C0.229196 43.8141 0.444873 43.6722 0.694428 43.6779C0.9948 43.7347 1.18209 44.0012 1.39156 44.1994C4.24379 47.0402 7.08432 49.8865 9.93059 52.727C10.0892 52.9031 10.2935 53.0787 10.3219 53.3282C10.3104 53.5718 10.1799 53.7875 10.0783 54.0029C6.71572 53.9972 3.35937 53.9972 0.00254486 53.9972C0.00254486 50.6349 -0.00318107 47.2669 0.00254486 43.9048" fill="#F96302"/>
<path d="M26.3953 43.7516C27.4045 43.6666 28.4082 44.0293 29.2416 44.5795C29.8936 45.0161 30.5003 45.5206 30.9651 46.15C31.521 46.8927 31.8609 47.8 31.8669 48.7355C31.8836 49.8015 31.4642 50.8787 30.7045 51.6326C30.5296 51.4637 30.3575 51.2917 30.1885 51.1168C30.2904 50.9243 30.4094 50.72 30.3755 50.4931C30.319 50.1529 30.0864 49.875 29.8538 49.6426L26.0267 45.8153C25.7659 45.5603 25.4711 45.2823 25.0855 45.2542C24.8758 45.2315 24.6885 45.3391 24.5129 45.4412C24.3483 45.2596 24.1216 45.1237 24.0195 44.897C24.6432 44.2562 25.4937 43.8081 26.3953 43.7516V43.7516Z" fill="white"/>
</svg>
