<svg width="206" height="49" viewBox="0 0 206 49" fill="none" xmlns="http://www.w3.org/2000/svg">
<path d="M119.356 26.0759C119.356 21.2369 117.285 16.9614 110.279 16.9614C106.685 16.9614 103.83 17.9858 102.282 18.8825L103.416 22.7647C104.842 21.8706 107.116 21.1342 109.262 21.1342C112.809 21.1292 113.39 23.1354 113.39 24.4253V24.7359C105.648 24.7234 100.754 27.3984 100.754 32.846C100.754 36.1747 103.239 39.2956 107.582 39.2956C110.232 39.2956 112.471 38.2261 113.808 36.5379H113.938C113.938 36.5379 114.82 40.2273 119.697 38.8172C119.449 37.2718 119.356 35.6438 119.356 33.6651V26.0759V26.0759ZM113.58 31.1854C113.58 31.5762 113.548 31.9819 113.433 32.3301C112.987 33.8204 111.449 35.0677 109.535 35.0677C107.92 35.0677 106.652 34.1535 106.652 32.2374C106.652 29.3069 109.888 28.5004 113.58 28.5205" fill="#0071CE"/>
<path d="M0.828125 10.377C0.828125 10.377 5.88501 31.0655 6.68904 34.4168C7.63578 38.3341 9.33145 39.7818 14.2256 38.8175L17.3865 25.9886C18.1855 22.8101 18.7289 20.5309 19.2449 17.2923H19.3325C19.6907 20.5634 20.2067 22.8101 20.8604 25.9986C20.8604 25.9986 22.1503 31.8269 22.8191 34.8801C23.4703 37.9333 25.3037 39.8594 30.1052 38.8175L37.6292 10.377H31.5553L28.9731 22.6799C28.2893 26.244 27.6681 29.0518 27.1847 32.3179H27.097C26.6613 29.0868 26.1077 26.3943 25.3964 22.9028L22.7214 10.377H16.3846L13.5293 22.5822C12.7152 26.3092 11.9538 29.2972 11.4754 32.4606H11.3928C10.8994 29.4926 10.2306 25.713 9.52178 22.1264C9.52178 22.1264 7.82611 13.3876 7.22754 10.377" fill="#0071CE"/>
<path d="M54.5564 26.0759C54.5564 21.2369 52.4799 16.9614 45.4743 16.9614C41.8902 16.9614 39.0299 17.9858 37.4821 18.8825L38.6166 22.7647C40.0368 21.8706 42.3086 21.1342 44.4626 21.1342C48.0091 21.1292 48.5902 23.1354 48.5902 24.4253V24.7359C40.8483 24.7234 35.9492 27.3984 35.9492 32.846C35.9492 36.1747 38.4439 39.2956 42.7669 39.2956C45.4418 39.2956 47.661 38.2261 48.9985 36.5379H49.1337C49.1337 36.5379 50.0203 40.2273 54.8919 38.8172C54.6415 37.2718 54.5564 35.6438 54.5564 33.6651V26.0759V26.0759ZM48.7756 31.1854C48.7756 31.5762 48.7431 31.9819 48.6329 32.3301C48.1819 33.8204 46.6441 35.0677 44.7256 35.0677C43.12 35.0677 41.8477 34.1535 41.8477 32.2374C41.8477 29.3069 45.0836 28.5004 48.7756 28.5205" fill="#0071CE"/>
<path d="M57.707 10.377V38.8074H63.4878V32.7787V10.377H57.707Z" fill="#0071CE"/>
<path d="M137.102 10.377V31.3536C137.102 34.249 137.645 36.2677 138.815 37.505C139.842 38.5895 141.522 39.2959 143.523 39.2959C145.242 39.2959 146.922 38.9652 147.716 38.6772L147.646 34.1613C147.053 34.299 146.374 34.4168 145.442 34.4168C143.468 34.4168 142.817 33.1669 142.817 30.5671V22.5371H147.852V17.1045H142.817V10.377" fill="#0071CE"/>
<path d="M122.16 17.4544V38.8167H128.136V27.8763C128.136 27.2877 128.174 26.7793 128.267 26.3084C128.712 24.0016 130.463 22.5414 132.985 22.5414C133.689 22.5414 134.167 22.619 134.698 22.7017V17.1012C134.253 17.0211 133.95 16.9785 133.401 16.9785C131.164 16.9785 128.63 18.3987 127.56 21.4919H127.412V17.4544" fill="#0071CE"/>
<path d="M66.8438 17.4544V38.8167H72.667V26.2784C72.667 25.6898 72.7321 25.0886 72.94 24.5451C73.4135 23.2753 74.5881 21.805 76.4741 21.805C78.8184 21.805 79.9255 23.7837 79.9255 26.639V38.8167H85.7339V26.1281C85.7339 25.5745 85.8116 24.8958 85.9743 24.4049C86.4402 22.9647 87.7126 21.805 89.4709 21.805C91.8403 21.805 92.9875 23.7411 92.9875 27.1074V38.8167H98.7907V26.2207C98.7907 19.6034 95.4244 16.9785 91.6023 16.9785C89.9217 16.9785 88.5843 17.3918 87.3819 18.1332C86.365 18.7568 85.4734 19.636 84.6744 20.7856H84.5868C83.6676 18.4863 81.5085 16.9785 78.6882 16.9785C75.0715 16.9785 73.4284 18.8044 72.4617 20.3473H72.3739V17.4544" fill="#0071CE"/>
<path d="M179.123 16.4957C180.265 16.4957 181.227 15.8996 181.352 15.1332L182.484 2.30931C182.484 1.03944 180.989 0 179.123 0C177.247 0 175.762 1.03944 175.762 2.30931L176.904 15.1332C177.024 15.8996 177.981 16.4957 179.123 16.4957Z" fill="#FFC220"/>
<path d="M172.177 20.5084C172.743 19.5065 172.71 18.3944 172.099 17.8985L161.53 10.5072C160.43 9.86604 158.784 10.63 157.843 12.248C156.904 13.8635 157.094 15.6769 158.171 16.3055L169.873 21.7307C170.622 22.0112 171.601 21.4902 172.177 20.4984" fill="#FFC220"/>
<path d="M186.065 20.498C186.663 21.4899 187.643 22.0108 188.372 21.7453L200.073 16.3052C201.161 15.664 201.323 13.8681 200.404 12.2526C199.465 10.6346 197.809 9.87571 196.712 10.5044L186.14 17.8881C185.554 18.3916 185.511 19.5087 186.077 20.508" fill="#FFC220"/>
<path d="M179.123 32.5142C180.265 32.5142 181.227 33.1103 181.352 33.8767L182.484 46.7006C182.484 47.9705 180.989 48.9999 179.123 48.9999C177.247 48.9999 175.762 47.9705 175.762 46.7006L176.904 33.8767C177.024 33.1103 177.981 32.5142 179.123 32.5142Z" fill="#FFC220"/>
<path d="M186.065 28.5126C186.663 27.5182 187.643 26.9873 188.372 27.2753L200.073 32.7054C201.161 33.3341 201.323 35.145 200.404 36.763C199.465 38.3685 197.809 39.1324 196.712 38.5037L186.14 31.1099C185.554 30.6115 185.511 29.4994 186.077 28.5126" fill="#FFC220"/>
<path d="M172.177 28.5019C172.743 29.5013 172.71 30.6109 172.099 31.1118L161.53 38.4931C160.43 39.1342 158.784 38.3678 157.843 36.7623C156.904 35.1468 157.094 33.3334 158.171 32.7048L169.873 27.2746C170.622 26.9891 171.601 27.5151 172.177 28.5019Z" fill="#FFC220"/>
<path d="M203.504 37.3785H203.649C203.847 37.3785 203.927 37.4411 203.95 37.5989C203.992 37.7742 204.015 37.892 204.057 37.9421H204.433C204.4 37.9045 204.358 37.8093 204.335 37.5889C204.293 37.3985 204.195 37.2908 204.057 37.2533V37.2182C204.248 37.1756 204.358 37.0479 204.358 36.8901C204.358 36.7473 204.293 36.6446 204.227 36.5795C204.102 36.5194 203.982 36.4718 203.717 36.4718C203.481 36.4718 203.308 36.4919 203.171 36.5244V37.9421H203.504V37.3785V37.3785ZM203.514 36.7323L203.684 36.7098C203.884 36.7098 203.992 36.8024 203.992 36.9327C203.992 37.0779 203.847 37.1456 203.662 37.1456H203.514V36.7323V36.7323ZM203.727 35.7705C202.905 35.7705 202.254 36.4117 202.254 37.1982C202.254 38.0047 202.905 38.6459 203.727 38.6459C204.558 38.6459 205.189 38.0047 205.189 37.1982C205.189 36.4117 204.558 35.7705 203.727 35.7705ZM203.727 36.0585C204.358 36.0585 204.826 36.5695 204.826 37.1982C204.826 37.8318 204.358 38.3578 203.727 38.3478C203.095 38.3478 202.617 37.8318 202.617 37.1982C202.617 36.5695 203.095 36.0585 203.717 36.0585" fill="#FFC220"/>
</svg>
