<svg width="557" height="851" viewBox="0 0 557 851" fill="none" xmlns="http://www.w3.org/2000/svg">
<g id="Frame 4">
<g id="machine">
<path id="Vector" d="M387 214.6V786.38H412.32C491.9 786.38 556.42 757.23 556.42 721.27V279.71C556.42 243.71 491.9 214.6 412.32 214.6H387Z" fill="#022999"/>
<g id="Group 71">
<path id="Vector_2" d="M451.834 247.808C451.834 246.814 452.648 246 453.642 246H495.359C496.367 246 497.167 246.814 497.167 247.808V298.592C497.167 299.599 496.354 300.4 495.359 300.4H453.642C452.635 300.4 451.834 299.586 451.834 298.592V247.808Z" fill="#FFBF45"/>
<path id="Vector_3" d="M455.914 250.314C455.914 249.81 456.314 249.41 456.818 249.41H492.194C492.697 249.41 493.098 249.81 493.098 250.314V296.112C493.098 296.616 492.697 297.016 492.194 297.016H456.818C456.314 297.016 455.914 296.616 455.914 296.112V250.314Z" fill="#FA6E0A"/>
<path id="Vector_4" d="M457.955 251.218C457.955 250.973 458.162 250.766 458.407 250.766H490.605C490.851 250.766 491.057 250.973 491.057 251.218V295.208C491.057 295.453 490.851 295.66 490.605 295.66H458.407C458.162 295.66 457.955 295.453 457.955 295.208V251.218Z" fill="#F03D14"/>
<path id="Vector_5" d="M459.091 251.67C459.091 251.541 459.194 251.437 459.324 251.437H489.701C489.83 251.437 489.933 251.541 489.933 251.67V294.743C489.933 294.872 489.83 294.975 489.701 294.975H459.311C459.181 294.975 459.078 294.872 459.078 294.743V251.67H459.091Z" fill="#001F78"/>
<path id="Vector_6" d="M487.428 252.806H461.584V278.65H487.428V252.806Z" fill="#00B5DB"/>
<path id="Vector_7" d="M486.304 253.478H462.721V277.966H486.304V253.478Z" fill="#001F78"/>
<path id="Vector_8" d="M487.223 282.047H484.407V290.235H487.223V282.047ZM480.558 286.141C480.558 287.717 480.519 288.466 479.615 288.466H479.383V283.842H479.615C480.519 283.829 480.558 284.591 480.558 286.141ZM483.387 286.141C483.387 282.163 482.043 282.06 479.189 282.06H476.567V290.248H479.189C482.056 290.235 483.387 290.119 483.387 286.141ZM475.728 290.235L475.457 288.014H473.429V282.047H470.613V290.235H475.728ZM469.942 290.235L467.578 282.047H464.078L461.676 290.235H464.491L464.711 289.293H466.687L466.919 290.235H469.942ZM466.351 287.562H465.047L465.692 284.243L466.351 287.562Z" fill="white"/>
<path id="Vector_9" d="M471.233 277.294H469.773L476.27 254.162H477.742L471.233 277.294Z" fill="#00B5DB"/>
<path id="Vector_10" d="M468.793 277.294H467.32L473.817 254.162H475.289L468.793 277.294Z" fill="#00B5DB"/>
<path id="Vector_11" d="M466.338 277.294H464.865L471.375 254.162H472.847L466.338 277.294Z" fill="#00B5DB"/>
<path id="Vector_12" d="M474.307 269.803L474.694 268.447H484.936V269.803H474.307Z" fill="#00B5DB"/>
<path id="Vector_13" d="M474.953 267.543L475.328 266.174H484.937V267.543H474.953Z" fill="#00B5DB"/>
<path id="Vector_14" d="M473.674 272.076L474.048 270.707H484.936V272.076H473.674Z" fill="#00B5DB"/>
</g>
<path id="Vector 2" opacity="0.25" d="M395.579 761.24H387.189V242.66C389.529 248.88 392.389 253.4 395.579 255.49V761.24Z" fill="#00B5DB"/>
<path id="Vector 3" opacity="0.25" d="M544 276.33V292.89C544 262.24 489 237.39 421.19 237.39H399.57V220.84H421.14C488.94 220.84 544 245.67 544 276.33Z" fill="#00B5DB"/>
<path id="Vector 4" opacity="0.25" d="M556.44 696.13V721.27C556.44 757.27 491.92 786.38 412.34 786.38H387V761.24H412.32C491.92 761.24 556.44 732.1 556.44 696.13Z" fill="#181818"/>
<path id="Vector 5" opacity="0.25" d="M556.44 696.13V721.27C556.44 757.27 491.92 786.38 412.34 786.38H387V761.24H412.32C491.92 761.24 556.44 732.1 556.44 696.13Z" fill="#181818"/>
<path id="Vector 6" opacity="0.25" d="M541.69 306.19C544.83 306.19 547.37 304.13 547.37 301.59C547.37 299.05 544.83 297 541.69 297C538.55 297 536.02 299.06 536.02 301.59C536.02 304.12 538.56 306.19 541.69 306.19Z" fill="#00B5DB"/>
<path id="dropHeight" d="M478.391 313.38H468.801V687.58H478.391V313.38Z" fill="#001F78"/>
<g id="pull">
<path id="Vector 7" d="M544.71 332.31V365.14C544.72 365.303 544.72 365.467 544.71 365.63V366.47C544.37 371.369 542.179 375.955 538.582 379.297C534.985 382.64 530.251 384.489 525.34 384.47H427.34C422.455 384.482 417.746 382.645 414.158 379.328C410.571 376.012 408.371 371.461 408 366.59C408 366.18 408 365.76 408 365.35V332.35C408.004 329.803 408.51 327.282 409.489 324.931C410.467 322.58 411.9 320.445 413.705 318.648C415.509 316.851 417.65 315.427 420.005 314.458C422.36 313.489 424.883 312.993 427.43 313H525.32C530.449 313.005 535.367 315.04 539 318.66C542.633 322.28 544.686 327.191 544.71 332.32V332.31Z" fill="#FFBF45"/>
<path id="Vector 8" d="M542.271 329.76V361.5C542.291 361.656 542.291 361.814 542.271 361.97V362.79C541.931 367.503 539.824 371.913 536.372 375.14C532.919 378.366 528.376 380.17 523.651 380.19H429.431C424.726 380.17 420.2 378.382 416.751 375.181C413.302 371.98 411.182 367.601 410.811 362.91C410.811 362.51 410.811 362.11 410.811 361.71V329.76C410.808 327.296 411.292 324.855 412.234 322.578C413.176 320.301 414.557 318.231 416.3 316.489C418.042 314.746 420.112 313.365 422.389 312.423C424.666 311.481 427.107 310.997 429.571 311H523.571C528.538 311.013 533.297 312.996 536.804 316.512C540.311 320.029 542.281 324.793 542.281 329.76H542.271Z" fill="#001F78"/>
<path id="Vector 9" d="M533.32 319.32C531.071 317.122 528.045 315.9 524.9 315.92H428.11C426.535 315.888 424.969 316.163 423.5 316.73C421.288 317.59 419.38 319.086 418.019 321.03C416.657 322.973 415.902 325.277 415.85 327.65V365.16C415.861 366.176 416.012 367.186 416.3 368.16C416.833 369.986 417.793 371.658 419.1 373.04C420.241 374.259 421.623 375.227 423.159 375.881C424.695 376.535 426.351 376.862 428.02 376.84H524.8C527.432 376.853 529.998 376.011 532.11 374.44C532.721 373.992 533.284 373.483 533.79 372.92C535.062 371.561 536 369.924 536.53 368.14C536.809 367.165 536.951 366.155 536.95 365.14V327.65C536.879 324.505 535.575 321.513 533.32 319.32ZM534.53 362.7C534.525 364.411 534.135 366.099 533.39 367.64C532.645 369.193 531.562 370.56 530.22 371.64C527.99 373.424 525.216 374.391 522.36 374.38H430.62C427.726 374.383 424.919 373.39 422.67 371.57C421.338 370.501 420.262 369.148 419.52 367.61C418.778 366.072 418.388 364.388 418.38 362.68V330.06C418.417 327.667 419.185 325.342 420.581 323.397C421.977 321.452 423.934 319.981 426.19 319.18C427.594 318.671 429.076 318.411 430.57 318.41H522.32C523.801 318.41 525.27 318.67 526.66 319.18C528.936 319.972 530.913 321.446 532.322 323.402C533.73 325.357 534.501 327.7 534.53 330.11V362.7Z" fill="#FFBF45"/>
<path id="Vector 10" opacity="0.3" d="M539.499 326.26V329.15C539.575 325.705 538.28 322.371 535.899 319.88C534.721 318.645 533.311 317.656 531.749 316.97C530.187 316.283 528.505 315.913 526.799 315.88H426.209C424.502 315.915 422.818 316.286 421.254 316.972C419.69 317.658 418.277 318.645 417.095 319.878C415.913 321.11 414.985 322.563 414.365 324.154C413.744 325.745 413.443 327.443 413.479 329.15V326.26C413.409 322.814 414.711 319.481 417.098 316.994C419.486 314.508 422.763 313.071 426.209 313H526.799C530.242 313.079 533.513 314.52 535.894 317.008C538.275 319.496 539.571 322.827 539.499 326.27V326.26Z" fill="white"/>
<path id="Vector 11" opacity="0.15" d="M541.931 363.18C541.588 367.891 539.48 372.299 536.028 375.523C532.576 378.747 528.035 380.55 523.311 380.57H429.181C424.476 380.55 419.95 378.762 416.501 375.561C413.052 372.36 410.932 367.981 410.561 363.29C410.852 365.726 411.959 367.992 413.701 369.72C415.507 371.57 417.815 372.849 420.341 373.4C421.459 373.684 422.608 373.825 423.761 373.82H528.761C529.913 373.822 531.061 373.688 532.181 373.42C534.719 372.864 537.036 371.569 538.841 369.7C540.576 367.933 541.674 365.639 541.961 363.18H541.931Z" fill="#212121"/>
<path id="Vector 12" d="M443.61 356.77C442.203 356.441 440.868 355.859 439.67 355.05L441.67 350.65C442.7 351.298 443.814 351.803 444.98 352.15C446.176 352.533 447.424 352.729 448.68 352.73C451.03 352.73 452.13 352.15 452.13 351C452.123 350.698 452.025 350.406 451.85 350.16C451.673 349.917 451.425 349.735 451.14 349.64C450.114 349.247 449.057 348.94 447.98 348.72C446.622 348.448 445.286 348.08 443.98 347.62C442.92 347.231 441.976 346.577 441.24 345.72C440.423 344.74 440.011 343.484 440.09 342.21C440.076 340.957 440.442 339.73 441.14 338.69C441.934 337.578 443.036 336.723 444.31 336.23C445.955 335.571 447.719 335.258 449.49 335.31C450.87 335.316 452.245 335.474 453.59 335.78C454.85 336.061 456.06 336.529 457.18 337.17L455.33 341.62C453.518 340.597 451.48 340.04 449.4 340C448.5 339.937 447.6 340.124 446.8 340.54C446.554 340.679 446.348 340.879 446.2 341.12C446.058 341.363 445.982 341.639 445.98 341.92C445.987 342.205 446.081 342.481 446.25 342.71C446.428 342.935 446.668 343.102 446.94 343.19C447.958 343.581 449.009 343.878 450.08 344.08C451.44 344.341 452.778 344.709 454.08 345.18C455.14 345.577 456.089 346.222 456.85 347.06C457.674 348.037 458.093 349.293 458.02 350.57C458.037 351.79 457.681 352.987 457 354C456.184 355.071 455.076 355.883 453.81 356.34C452.187 357.015 450.437 357.336 448.68 357.28C446.998 357.324 445.318 357.153 443.68 356.77H443.61Z" fill="white"/>
<path id="Vector 13" d="M478.759 339.44C478.639 339.26 478.519 339.09 478.389 338.92C477.63 337.946 476.635 337.182 475.499 336.7C473.92 336.022 472.217 335.681 470.499 335.7H460.789V357H466.789V351.44H470.449C472.168 351.472 473.874 351.131 475.449 350.44C476.582 349.962 477.576 349.205 478.339 348.24C478.471 348.08 478.595 347.913 478.709 347.74C479.472 346.487 479.876 345.047 479.876 343.58C479.876 342.113 479.472 340.673 478.709 339.42L478.759 339.44ZM473.649 344.82C473.489 345.227 473.239 345.592 472.919 345.89C472.114 346.443 471.142 346.698 470.169 346.61H466.819V340.38H470.129C471.127 340.311 472.117 340.602 472.919 341.2C473.242 341.496 473.491 341.862 473.649 342.27C473.808 342.674 473.88 343.107 473.859 343.54C473.891 343.977 473.819 344.416 473.649 344.82Z" fill="white"/>
<path id="Vector 14" d="M482.84 335.73H488.84V357H482.84V335.73Z" fill="white"/>
<path id="Vector 15" d="M513.31 335.73V357H508.37L499 345.65V357H493.1V335.73H498.05L507.43 347.06V335.73H513.31Z" fill="white"/>
</g>
<path id="Vector_2_2" d="M387.47 214.6C383.454 196.533 373.398 180.375 358.96 168.793C344.523 157.212 326.568 150.9 308.06 150.9H81.34C59.769 150.9 39.0814 159.468 23.8275 174.72C8.57355 189.972 0.00265195 210.659 0 232.23V768.77C0.00265195 790.341 8.57355 811.028 23.8275 826.28C39.0814 841.532 59.769 850.1 81.34 850.1H308.06C318.744 850.113 329.326 848.018 339.199 843.936C349.073 839.853 358.044 833.863 365.598 826.308C373.153 818.754 379.143 809.783 383.226 799.909C387.308 790.036 389.403 779.454 389.39 768.77V232.23C389.395 226.301 388.751 220.389 387.47 214.6ZM343.65 757.94C343.65 787.29 320.86 811.04 292.72 811.04H96.72C68.58 811.04 45.79 787.29 45.79 757.94V510.39L60.49 495.69L45.79 481V245.36C45.79 216.03 68.6 192.26 96.72 192.26H292.72C320.86 192.26 343.65 216.03 343.65 245.36V757.94Z" fill="#022999"/>
<path id="Vector 17" opacity="0.2" d="M351.562 214.79C347.403 204.722 340.348 196.116 331.291 190.063C322.235 184.01 311.585 180.783 300.692 180.79H88.7419C81.5092 180.79 74.3473 182.215 67.6653 184.983C60.9832 187.751 54.9119 191.808 49.798 196.923C44.6842 202.038 40.628 208.11 37.861 214.793C35.0941 221.475 33.6706 228.637 33.6719 235.87V767.43C33.6706 774.663 35.0941 781.825 37.861 788.507C40.628 795.19 44.6842 801.262 49.798 806.377C54.9119 811.492 60.9832 815.549 67.6653 818.317C74.3473 821.085 81.5092 822.51 88.7419 822.51H300.742C307.974 822.509 315.135 821.083 321.816 818.314C328.497 815.545 334.567 811.488 339.679 806.373C344.792 801.259 348.848 795.187 351.614 788.505C354.38 781.823 355.803 774.662 355.802 767.43V235.87C355.789 228.633 354.349 221.469 351.562 214.79ZM343.652 757.94C343.652 787.29 320.862 811.04 292.722 811.04H96.7219C68.5819 811.04 45.7919 787.29 45.7919 757.94V245.36C45.7919 216.03 68.6019 192.26 96.7219 192.26H292.722C320.862 192.26 343.652 216.03 343.652 245.36V757.94Z" fill="white"/>
<g id="spinCont">
<path id="glass" opacity="0.5" d="M354.252 234.37H354.281C354.099 227.846 352.727 221.407 350.228 215.369C347.537 208.869 343.592 202.962 338.618 197.988L338.618 197.987C333.645 193.012 327.741 189.065 321.242 186.372C314.743 183.678 307.777 182.291 300.742 182.29H88.7419C81.7062 182.29 74.7394 183.676 68.2393 186.369L67.6653 184.983L68.2393 186.369C61.7392 189.061 55.8333 193.008 50.8588 197.984L354.252 234.37ZM354.252 234.37V235.87M354.252 234.37V235.87M354.252 235.87V767.43C354.253 774.465 352.869 781.431 350.178 787.931C347.487 794.431 343.542 800.338 338.569 805.313C333.595 810.288 327.691 814.235 321.192 816.928C314.693 819.622 307.727 821.009 300.692 821.01H88.7419C81.7062 821.01 74.7394 819.624 68.2393 816.931C61.7392 814.239 55.8333 810.292 50.8588 805.317C45.8842 800.341 41.9385 794.434 39.2469 787.933L37.8629 788.506M354.252 235.87L37.8629 788.506M37.8629 788.506L39.2469 787.933C36.5553 781.433 35.1706 774.466 35.1719 767.43L35.1719 235.87L35.1719 235.87M37.8629 788.506L35.1719 235.87M35.1719 235.87C35.1706 228.834 36.5553 221.867 39.2469 215.367L39.2469 215.367M35.1719 235.87L39.2469 215.367M39.2469 215.367C41.9385 208.866 45.8842 202.959 50.8588 197.984L39.2469 215.367Z" fill="#CBFCFF" stroke="#007DB6" stroke-width="3"/>
<path id="Vector 18" opacity="0.5" d="M355.752 270.78V331.1L253.332 180.79H294.442L355.752 270.78Z" fill="white"/>
<path id="Vector 19" opacity="0.5" d="M157.791 820.16H116.691L33.6914 698.34V638L157.791 820.16Z" fill="white"/>
<path id="Vector 20" opacity="0.5" d="M355.752 349.65V375.49L223.072 180.79H240.672L355.752 349.65Z" fill="white"/>
<path id="Vector 21" opacity="0.5" d="M89.7319 657.87V683.71L33.6719 601.43V575.6L89.7319 657.87Z" fill="white"/>
</g>
<g id="pointer">
<path id="Vector_3_2" d="M60.49 495.69L0 556.18V435.2L60.49 495.69Z" fill="#001F78"/>
<path id="Vector_4_2" d="M60.49 495.69L0 556.18V549.78L33.67 519.67L45.79 508.83L60.49 495.69Z" fill="#FFBF45"/>
<path id="Vector 24" d="M54.5614 494.4L55.3414 493.62L6.72141 445L5.94141 445.78L54.5614 494.4Z" fill="#FFBF45"/>
</g>
<path id="Vector 25" d="M330.608 0H58.7981C55.6897 0 52.7087 1.23478 50.5108 3.43271C48.3128 5.63063 47.0781 8.61166 47.0781 11.72V112.8C47.0781 115.908 48.3128 118.889 50.5108 121.087C52.7087 123.285 55.6897 124.52 58.7981 124.52H330.608C333.716 124.52 336.697 123.285 338.895 121.087C341.093 118.889 342.328 115.908 342.328 112.8V11.72C342.328 8.61166 341.093 5.63063 338.895 3.43271C336.697 1.23478 333.716 0 330.608 0Z" fill="#001F78"/>
<g id="Vector 34" filter="url(#filter0_i_420_1952)">
<path d="M335.281 19.41V105.13C335.278 108.238 334.043 111.219 331.846 113.418C329.649 115.617 326.669 116.855 323.561 116.86H65.8411C62.7318 116.857 59.7508 115.62 57.5532 113.421C55.3556 111.221 54.1211 108.239 54.1211 105.13V19.41C54.1198 17.6728 54.506 15.9572 55.2516 14.3882C55.9972 12.8191 57.0834 11.4362 58.4311 10.34C59.2597 9.64958 60.1822 9.08055 61.1711 8.65002C62.6512 8.00453 64.2464 7.66441 65.8611 7.65002H323.561C326.669 7.65267 329.648 8.8883 331.845 11.0856C334.043 13.283 335.278 16.2625 335.281 19.37V19.41Z" fill="#001F78"/>
</g>
<path id="Vector 26" d="M109.8 124.52H99V150.9H109.8V124.52Z" fill="#001B66"/>
<path id="Vector 27" d="M294.79 124.52H284V150.9H294.79V124.52Z" fill="#001B66"/>
<g id="blink">
<path id="Vector 28" d="M77.4901 81.8001C74.8528 81.1773 72.345 80.0977 70.0801 78.6101L73.7901 70.34C77.7357 72.82 82.2808 74.1819 86.9401 74.2801C91.2801 74.2801 93.4301 73.18 93.4301 71.0201C93.4262 70.4576 93.2455 69.9105 92.9135 69.4565C92.5814 69.0024 92.1149 68.6643 91.5801 68.4901C89.637 67.7291 87.6287 67.1467 85.5801 66.7501C83.031 66.2296 80.5215 65.5312 78.0701 64.6601C76.0471 63.8951 74.2559 62.6206 72.8701 60.9601C71.3519 59.1027 70.5816 56.7456 70.7101 54.3501C70.6855 52.0066 71.3839 49.7125 72.7101 47.7801C74.2093 45.6645 76.2951 44.0342 78.7101 43.0901C81.7982 41.871 85.1012 41.2893 88.4201 41.3801C91.0311 41.3797 93.6339 41.6716 96.1801 42.2501C98.5385 42.783 100.806 43.659 102.91 44.8501L99.4101 53.3601C96.0515 51.4482 92.2733 50.3938 88.4101 50.2901C86.7153 50.1571 85.0172 50.5037 83.5101 51.2901C83.0482 51.5453 82.6619 51.9179 82.3901 52.3701C82.1142 52.8222 81.9657 53.3405 81.9601 53.8701C81.9839 54.402 82.1729 54.9133 82.5009 55.3327C82.8289 55.7521 83.2796 56.0588 83.7901 56.2101C85.688 56.9453 87.6496 57.5043 89.6501 57.8801C92.1995 58.4118 94.7089 59.1202 97.1601 60.0001C99.1498 60.7395 100.928 61.9549 102.34 63.5401C103.891 65.3742 104.681 67.7318 104.55 70.1301C104.575 72.4489 103.876 74.7177 102.55 76.6201C101.031 78.7168 98.9515 80.3424 96.5501 81.3101C93.4766 82.5176 90.191 83.0924 86.8901 83.0001C83.7178 83.0115 80.5577 82.6081 77.4901 81.8001Z" fill="#FFBF45"/>
<path id="Vector 29" d="M143.52 49.29C142.017 47.0001 139.88 45.1968 137.37 44.1C134.403 42.8254 131.199 42.1949 127.97 42.25H109.73V82.11H121V71.67H128C131.218 71.7489 134.415 71.1422 137.38 69.89C139.257 69.0732 140.934 67.8561 142.292 66.3239C143.65 64.7917 144.657 62.9814 145.243 61.0195C145.829 59.0576 145.979 56.9914 145.683 54.9654C145.387 52.9394 144.652 51.0024 143.53 49.29H143.52ZM133.89 59.43C133.593 60.1932 133.124 60.8777 132.52 61.43C131.018 62.5552 129.163 63.1051 127.29 62.98H121V51.21H127.28C129.149 51.0709 131.006 51.6106 132.51 52.73C133.103 53.2806 133.568 53.9546 133.872 54.7045C134.176 55.4544 134.312 56.2619 134.27 57.07C134.319 57.8751 134.189 58.6811 133.89 59.43Z" fill="#FFBF45"/>
<path id="Vector 30" d="M151.16 42.3201H162.44V82.1801H151.16V42.3201Z" fill="#FFBF45"/>
<path id="Vector 31" d="M208.409 42.3201V82.1801H198.999L181.519 61.0001V82.2301H170.449V42.3701H179.829L197.419 63.6101V42.3201H208.409Z" fill="#FFBF45"/>
<path id="Vector 32" d="M269 82.2V61.1L258.73 78.31H253.73L243.53 61.69V82.25H233V42.39H242.38L256.45 65.39L270.12 42.39H279.49V82.25L269 82.2Z" fill="#FFBF45"/>
<path id="Vector 33" d="M319.34 73.4801V82.2001H287.34V42.3401H318.62V51.0701H298.49V57.7701H316.22V66.2101H298.49V73.5001L319.34 73.4801Z" fill="#FFBF45"/>
</g>
<path id="Vector 35" opacity="0.5" d="M342 39.4854V45L307 0H311.306L342 39.4854Z" fill="white"/>
<path id="Vector 36" opacity="0.5" d="M88 124V123.488L47 82V88.6437L81.8881 124H88Z" fill="white"/>
<path id="Vector 37" opacity="0.5" d="M342 59.9828V86L272 0H293.145L342 59.9828Z" fill="white"/>
</g>
</g>
<defs>
<filter id="filter0_i_420_1952" x="54.1211" y="7.65002" width="281.16" height="109.21" filterUnits="userSpaceOnUse" color-interpolation-filters="sRGB">
<feFlood flood-opacity="0" result="BackgroundImageFix"/>
<feBlend mode="normal" in="SourceGraphic" in2="BackgroundImageFix" result="shape"/>
<feColorMatrix in="SourceAlpha" type="matrix" values="0 0 0 0 0 0 0 0 0 0 0 0 0 0 0 0 0 0 127 0" result="hardAlpha"/>
<feOffset/>
<feGaussianBlur stdDeviation="7.5"/>
<feComposite in2="hardAlpha" operator="arithmetic" k2="-1" k3="1"/>
<feColorMatrix type="matrix" values="0 0 0 0 0 0 0 0 0 0 0 0 0 0 0 0 0 0 0.25 0"/>
<feBlend mode="normal" in2="shape" result="effect1_innerShadow_420_1952"/>
</filter>
</defs>
</svg>
