<svg width="557" height="851" viewBox="0 0 557 851" fill="none" xmlns="http://www.w3.org/2000/svg">
<g id="machine">
<path id="Vector" d="M387.021 214.601V786.376H412.343C491.918 786.376 556.442 757.233 556.442 721.267V279.71C556.442 243.744 491.918 214.601 412.343 214.601H387.021Z" fill="#ED6439"/>
<path id="Vector_2" opacity="0.25" d="M395.579 761.242H387.186V242.665C389.53 248.878 392.391 253.403 395.579 255.49" fill="black"/>
<path id="Vector_3" opacity="0.25" d="M543.944 276.333V292.886C543.944 262.242 488.964 237.39 421.135 237.39H399.564V220.837H421.135C488.94 220.837 543.944 245.666 543.944 276.333Z" fill="white"/>
<path id="Vector_4" opacity="0.25" d="M556.442 696.133V721.267C556.442 757.233 491.918 786.376 412.343 786.376H387.021V761.242H412.343C491.918 761.242 556.442 732.099 556.442 696.133Z" fill="#181818"/>
<path id="Vector_5" opacity="0.25" d="M556.442 696.133V721.267C556.442 757.233 491.918 786.376 412.343 786.376H387.021V761.242H412.343C491.918 761.242 556.442 732.099 556.442 696.133Z" fill="#181818"/>
<path id="Vector_6" opacity="0.25" d="M541.693 311.479C544.827 311.479 547.367 309.421 547.367 306.884C547.367 304.346 544.827 302.288 541.693 302.288C538.56 302.288 536.02 304.346 536.02 306.884C536.02 309.421 538.56 311.479 541.693 311.479Z" fill="white"/>
<path id="dropHeight" d="M478.39 313.378H468.801V687.575H478.39V313.378Z" fill="#282828"/>
<g id="pull">
<path id="Vector_7" d="M544.707 332.313V365.137C544.719 365.301 544.719 365.465 544.707 365.629C544.707 365.934 544.707 366.215 544.707 366.473C544.362 371.368 542.17 375.949 538.574 379.288C534.978 382.627 530.248 384.474 525.341 384.456H427.36C422.476 384.471 417.768 382.637 414.18 379.323C410.592 376.009 408.39 371.46 408.017 366.591C407.994 366.177 407.994 365.762 408.017 365.348V332.313C408.024 329.769 408.531 327.252 409.51 324.905C410.489 322.558 411.92 320.426 413.723 318.632C415.526 316.838 417.664 315.417 420.016 314.449C422.368 313.482 424.887 312.987 427.431 312.993H525.317C530.448 312.993 535.369 315.026 539.003 318.647C542.637 322.269 544.689 327.182 544.707 332.313Z" fill="#AF3E25"/>
<path id="Vector_8" d="M542.269 329.757V361.503C542.293 361.658 542.293 361.816 542.269 361.971C542.269 362.276 542.269 362.534 542.269 362.792C541.926 367.503 539.819 371.911 536.368 375.137C532.917 378.362 528.376 380.166 523.653 380.189H429.424C424.719 380.168 420.194 378.38 416.746 375.18C413.297 371.979 411.178 367.599 410.808 362.909C410.784 362.511 410.784 362.112 410.808 361.714V329.757C410.808 324.782 412.784 320.011 416.301 316.494C419.819 312.976 424.59 311 429.564 311H523.559C528.525 311.012 533.284 312.994 536.792 316.51C540.299 320.026 542.269 324.79 542.269 329.757V329.757Z" fill="#FABF19"/>
<path id="Vector_9" d="M524.896 315.923H428.111C426.535 315.886 424.968 316.16 423.499 316.729C422.029 317.298 420.687 318.152 419.548 319.241C418.409 320.33 417.496 321.633 416.861 323.075C416.226 324.517 415.882 326.071 415.849 327.646V365.16C415.854 366.184 416.004 367.202 416.294 368.184C417.039 370.708 418.586 372.921 420.702 374.487C422.817 376.052 425.385 376.885 428.017 376.859H524.802C527.434 376.872 529.999 376.031 532.112 374.463C534.226 372.895 535.774 370.683 536.525 368.161C536.808 367.186 536.95 366.175 536.947 365.16V327.646C536.879 324.501 535.577 321.509 533.323 319.316C531.068 317.123 528.041 315.904 524.896 315.923ZM522.363 374.35H430.62C427.724 374.364 424.914 373.369 422.671 371.537C421.337 370.471 420.259 369.119 419.517 367.581C418.774 366.044 418.386 364.359 418.381 362.651V330.061C418.416 327.668 419.183 325.342 420.578 323.397C421.974 321.452 423.932 319.982 426.188 319.182C427.594 318.672 429.077 318.41 430.573 318.409H522.317C523.797 318.41 525.265 318.671 526.654 319.182V319.182C528.931 319.973 530.909 321.446 532.319 323.401C533.728 325.356 534.501 327.698 534.532 330.108V362.698C534.524 364.411 534.132 366.1 533.386 367.642C532.639 369.184 531.557 370.539 530.218 371.607C527.989 373.39 525.218 374.358 522.363 374.35V374.35Z" fill="#AF4225"/>
<path id="Vector_10" opacity="0.3" d="M539.503 326.264V329.147C539.54 327.442 539.241 325.745 538.623 324.155C538.004 322.565 537.078 321.112 535.898 319.879C534.718 318.647 533.307 317.659 531.745 316.973C530.183 316.286 528.501 315.914 526.795 315.877H426.212C422.765 315.951 419.488 317.39 417.101 319.878C414.714 322.366 413.412 325.7 413.481 329.147V326.264C413.412 322.816 414.714 319.482 417.101 316.994C419.488 314.506 422.765 313.067 426.212 312.993H526.795C530.238 313.073 533.509 314.515 535.891 317.002C538.273 319.49 539.572 322.82 539.503 326.264V326.264Z" fill="white"/>
<path id="Vector_11" opacity="0.15" d="M541.929 363.177C541.587 367.888 539.479 372.296 536.028 375.521C532.577 378.746 528.036 380.551 523.313 380.574H429.178C424.473 380.553 419.948 378.765 416.5 375.564C413.051 372.364 410.932 367.984 410.562 363.294C410.853 365.729 411.96 367.993 413.703 369.718C415.505 371.57 417.813 372.851 420.338 373.399C421.457 373.684 422.607 373.825 423.762 373.821H528.729C529.882 373.823 531.031 373.689 532.152 373.423C534.69 372.863 537.007 371.566 538.811 369.695C540.546 367.929 541.643 365.636 541.929 363.177V363.177Z" fill="#212121"/>
<path id="Vector_12" d="M443.609 356.766C442.202 356.443 440.866 355.863 439.67 355.055L441.639 350.647C442.668 351.295 443.78 351.8 444.945 352.147C446.142 352.534 447.392 352.732 448.65 352.734C450.994 352.734 452.096 352.147 452.096 350.999C452.093 350.698 451.996 350.406 451.82 350.162C451.644 349.919 451.396 349.736 451.112 349.639C450.084 349.247 449.025 348.941 447.946 348.724C446.587 348.446 445.248 348.078 443.937 347.622C442.878 347.229 441.935 346.576 441.194 345.723C440.383 344.737 439.973 343.481 440.045 342.206C440.034 340.955 440.402 339.729 441.1 338.69C441.894 337.579 442.994 336.724 444.265 336.228C445.912 335.572 447.675 335.261 449.447 335.313C450.828 335.316 452.204 335.473 453.55 335.782C454.808 336.063 456.017 336.529 457.137 337.166L455.285 341.62C453.489 340.596 451.467 340.032 449.4 339.979C448.499 339.916 447.599 340.102 446.797 340.518C446.552 340.657 446.347 340.858 446.203 341.101C446.059 341.343 445.981 341.62 445.977 341.902C445.984 342.187 446.081 342.463 446.253 342.69C446.426 342.917 446.665 343.084 446.938 343.168C447.956 343.561 449.007 343.859 450.08 344.059C451.443 344.32 452.784 344.688 454.089 345.161C455.146 345.559 456.094 346.202 456.856 347.036C457.675 348.019 458.094 349.275 458.028 350.553C458.031 351.785 457.654 352.989 456.95 354C456.133 355.07 455.026 355.884 453.761 356.344C452.135 357.016 450.385 357.335 448.626 357.282C446.939 357.325 445.252 357.152 443.609 356.766V356.766Z" fill="#B73D26"/>
<path id="Vector_13" d="M475.495 336.697C476.832 337.264 477.968 338.22 478.754 339.44C479.551 340.675 479.959 342.121 479.927 343.59C479.958 345.066 479.55 346.519 478.754 347.763C477.958 348.964 476.824 349.903 475.495 350.46C473.912 351.139 472.2 351.467 470.478 351.421H466.821V356.978H460.818V335.736H470.525C472.231 335.707 473.923 336.035 475.495 336.697V336.697ZM472.916 345.888C473.239 345.593 473.491 345.228 473.653 344.822C473.816 344.417 473.884 343.979 473.854 343.543C473.883 343.107 473.813 342.67 473.651 342.265C473.489 341.859 473.238 341.495 472.916 341.198C472.113 340.603 471.124 340.312 470.126 340.378H466.821V346.614H470.173C471.144 346.696 472.113 346.439 472.916 345.888V345.888Z" fill="#B73D26"/>
<path id="Vector_14" d="M482.834 335.735H488.836V356.977H482.834V335.735Z" fill="#B73D26"/>
<path id="Vector_15" d="M513.313 335.735V356.977H508.366L498.987 345.653V356.977H493.103V335.735H498.05L507.428 347.06V335.735H513.313Z" fill="#B73D26"/>
</g>
<path id="Vector_16" d="M308.056 150.898H81.3339C36.4144 150.898 0 187.312 0 232.232V768.768C0 813.688 36.4144 850.102 81.3339 850.102H308.056C352.975 850.102 389.39 813.688 389.39 768.768V232.232C389.39 187.312 352.975 150.898 308.056 150.898Z" fill="#ED6439"/>
<path id="Vector_17" opacity="0.5" d="M300.693 180.792H88.7424C74.1358 180.792 60.1274 186.594 49.7989 196.922C39.4704 207.251 33.668 221.259 33.668 235.866V767.432C33.668 782.038 39.4704 796.047 49.7989 806.375C60.1274 816.704 74.1358 822.506 88.7424 822.506H300.693C307.925 822.506 315.085 821.081 321.766 818.313C328.447 815.545 334.516 811.488 339.629 806.374C344.741 801.259 348.795 795.188 351.561 788.506C354.326 781.824 355.747 774.663 355.744 767.432V235.866C355.747 228.635 354.326 221.473 351.561 214.792C348.795 208.11 344.741 202.038 339.629 196.924C334.516 191.809 328.447 187.752 321.766 184.984C315.085 182.216 307.925 180.792 300.693 180.792ZM343.646 757.936C343.646 787.29 320.857 811.041 292.722 811.041H96.714C68.5789 811.041 45.7895 787.29 45.7895 757.936V245.362C45.7895 216.031 68.6024 192.257 96.714 192.257H292.722C320.857 192.257 343.646 216.031 343.646 245.362V757.936Z" fill="black"/>
<g id="spinCont">
<path id="glassBack" d="M355.744 235.866V767.432C355.747 774.663 354.326 781.824 351.561 788.506C348.795 795.188 344.741 801.259 339.629 806.374C334.516 811.488 328.447 815.545 321.766 818.313C315.085 821.081 307.925 822.506 300.693 822.506H88.7424C74.1358 822.506 60.1274 816.704 49.7989 806.375C39.4704 796.047 33.668 782.038 33.668 767.432V235.866C33.668 221.259 39.4704 207.251 49.7989 196.922C60.1274 186.594 74.1358 180.792 88.7424 180.792H300.693C307.925 180.792 315.085 182.216 321.766 184.984C328.447 187.752 334.516 191.809 339.629 196.924C344.741 202.038 348.795 208.11 351.561 214.792C354.326 221.473 355.747 228.635 355.744 235.866V235.866Z" fill="white" fill-opacity="0.5"/>
<path id="glass" opacity="0.5" d="M355.744 235.866V767.432C355.747 774.663 354.326 781.824 351.561 788.506C348.795 795.188 344.741 801.259 339.629 806.374C334.516 811.488 328.447 815.545 321.766 818.313C315.085 821.081 307.925 822.506 300.693 822.506H88.7424C74.1358 822.506 60.1274 816.704 49.7989 806.375C39.4704 796.047 33.668 782.038 33.668 767.432V235.866C33.668 221.259 39.4704 207.251 49.7989 196.922C60.1274 186.594 74.1358 180.792 88.7424 180.792H300.693C307.925 180.792 315.085 182.216 321.766 184.984C328.447 187.752 334.516 191.809 339.629 196.924C344.741 202.038 348.795 208.11 351.561 214.792C354.326 221.473 355.747 228.635 355.744 235.866V235.866Z" fill="#FFF18E"/>
<path id="Vector_18" opacity="0.5" d="M355.745 270.777V331.103L253.333 180.792H294.434L355.745 270.777Z" fill="white"/>
<path id="Vector_19" opacity="0.5" d="M157.791 820.162H116.69L33.668 698.337V637.987L157.791 820.162Z" fill="white"/>
<path id="Vector_20" opacity="0.5" d="M355.745 349.649V375.486L223.064 180.792H240.672L355.745 349.649Z" fill="white"/>
<path id="Vector_21" opacity="0.5" d="M89.7271 657.869V683.706L33.668 601.435V575.597L89.7271 657.869Z" fill="white"/>
</g>
<g id="pointer">
<path id="Vector_22" d="M0 556.184V435.203L60.4904 495.694L0 556.184Z" fill="#FABF19"/>
<path id="Vector_23" opacity="0.45" d="M60.4904 495.693L0 556.184V549.783L60.4904 495.693Z" fill="black"/>
<path id="Vector_24" opacity="0.45" d="M54.5626 492.751L55.3418 491.972L6.71631 443.347L5.93711 444.126L54.5626 492.751Z" fill="white"/>
</g>
<path id="Vector_25" d="M330.611 0H58.8021C52.3276 0 47.0791 5.24855 47.0791 11.723V112.798C47.0791 119.273 52.3276 124.521 58.8021 124.521H330.611C337.085 124.521 342.333 119.273 342.333 112.798V11.723C342.333 5.24855 337.085 0 330.611 0Z" fill="#FABF19"/>
<path id="Vector_26" d="M109.797 124.521H99.0117V150.898H109.797V124.521Z" fill="#8E381E"/>
<path id="Vector_27" d="M294.785 124.521H284V150.898H294.785V124.521Z" fill="#8E381E"/>
<g id="blink">
<path id="Vector_28" d="M77.489 81.8031C74.8537 81.1761 72.347 80.0973 70.0801 78.6144L73.7845 70.338C77.7295 72.8219 82.2768 74.1836 86.9377 74.2769C91.2752 74.2769 93.4322 73.175 93.4322 71.0179C93.4262 70.4554 93.2444 69.9088 92.9123 69.4547C92.5801 69.0007 92.1143 68.6619 91.58 68.4858C89.6496 67.7341 87.6568 67.1535 85.6247 66.7508C83.0782 66.2312 80.5712 65.5339 78.122 64.6641C76.0969 63.8983 74.304 62.6222 72.917 60.9596C71.4001 59.1011 70.6309 56.7435 70.76 54.3479C70.7311 52.0064 71.4272 49.7133 72.7529 47.783C74.2349 45.6695 76.306 44.0387 78.7082 43.0939C81.7935 41.8685 85.0965 41.2861 88.4148 41.3823C91.0261 41.3771 93.6296 41.6682 96.1754 42.2498C98.535 42.7788 100.803 43.6559 102.904 44.8523L99.4109 53.3632C96.0407 51.4415 92.2463 50.3862 88.3679 50.2918C86.6724 50.1632 84.9748 50.5125 83.4677 51.2999C83.0041 51.5538 82.6164 51.9265 82.3444 52.3797C82.0725 52.833 81.9261 53.3504 81.9203 53.879C81.9424 54.4117 82.1306 54.9242 82.4586 55.3446C82.7865 55.7651 83.2377 56.0724 83.749 56.2236C85.6483 56.9552 87.6102 57.5124 89.6105 57.8882C92.1729 58.3957 94.6958 59.0852 97.1601 59.9515C99.1494 60.6929 100.928 61.9081 102.342 63.4918C103.893 65.3248 104.681 67.6828 104.546 70.0801C104.571 72.3992 103.874 74.6688 102.553 76.5746C101.035 78.6634 98.9642 80.2873 96.574 81.2638C93.4974 82.4933 90.2028 83.0837 86.8908 82.9988C83.7184 83.0073 80.5583 82.6054 77.489 81.8031V81.8031Z" fill="#231F20"/>
<path id="Vector_29" d="M137.37 44.1021C139.88 45.1964 142.016 46.9994 143.516 49.29C145.017 51.5806 145.816 54.2593 145.816 56.9974C145.816 59.7355 145.017 62.4141 143.516 64.7047C142.016 66.9953 139.88 68.7983 137.37 69.8926C134.405 71.1413 131.209 71.7486 127.992 71.6745H120.958V82.108H109.728V42.2499H127.968C131.198 42.1947 134.403 42.8261 137.37 44.1021V44.1021ZM132.517 61.3818C133.115 60.8409 133.584 60.1723 133.888 59.4254C134.193 58.6785 134.325 57.8727 134.275 57.0677C134.32 56.2598 134.186 55.4519 133.882 54.7021C133.578 53.9522 133.112 53.2788 132.517 52.7302C131.012 51.6149 129.157 51.0744 127.289 51.2062H121.005V62.9292H127.289C129.16 63.0543 131.015 62.5054 132.517 61.3818Z" fill="#231F20"/>
<path id="Vector_30" d="M151.156 42.3203H162.434V82.1784H151.156V42.3203Z" fill="#231F20"/>
<path id="Vector_31" d="M208.411 42.3203V82.1784H199.033L181.519 60.9598V82.2253H170.452V42.3672H179.831L197.415 63.6092V42.3203H208.411Z" fill="#231F20"/>
<path id="Vector_32" d="M268.972 82.2018V61.1005L258.726 78.3098H253.709L243.51 61.6866V82.2487H232.959V42.3906H242.337L256.405 65.4145L270.074 42.3906H279.452V82.2487L268.972 82.2018Z" fill="#231F20"/>
<path id="Vector_33" d="M319.334 73.4799V82.2018H287.33V42.3438H318.607V51.0656H298.49V57.7712H316.215V66.2117H298.49V73.5034L319.334 73.4799Z" fill="#231F20"/>
</g>
<path id="Vector_34" opacity="0.25" d="M335.277 19.4134V105.132C335.277 108.241 334.042 111.223 331.843 113.421C329.645 115.619 326.663 116.855 323.554 116.855H65.8362C62.7271 116.855 59.7453 115.619 57.5469 113.421C55.3484 111.223 54.1133 108.241 54.1133 105.132V19.4134C54.115 17.6758 54.5029 15.9603 55.249 14.391C55.9951 12.8218 57.0807 11.438 58.4273 10.3398C59.257 9.64981 60.1806 9.08141 61.1705 8.65172C62.652 8.01601 64.2475 7.68893 65.8597 7.69043H323.554C326.663 7.69043 329.645 8.92553 331.843 11.124C334.042 13.3225 335.277 16.3043 335.277 19.4134Z" fill="white"/>
<path id="Vector_35" opacity="0.5" d="M335.276 44.7584V49.94L302.288 7.66699H306.344L335.276 44.7584Z" fill="white"/>
<path id="Vector_36" opacity="0.5" d="M79.4114 116.855V116.456L54.1133 84.0537V89.2353L75.6366 116.855H79.4114Z" fill="white"/>
<path id="Vector_37" opacity="0.5" d="M335.276 56.2704V77.3482L278.771 7.66699H295.84L335.276 56.2704Z" fill="white"/>
</g>
</svg>
